<?xml version="1.0" encoding="iso-8859-1"?>
<!-- Generator: Adobe Illustrator 19.0.0, SVG Export Plug-In . SVG Version: 6.00 Build 0)  -->
<svg version="1.1" id="Capa_1" xmlns="http://www.w3.org/2000/svg" xmlns:xlink="http://www.w3.org/1999/xlink" x="0px" y="0px"
	 viewBox="0 0 512 512" style="enable-background:new 0 0 512 512;" xml:space="preserve">
<path style="fill:#BF0000;" d="M482,135.514v15v15v15c0,24.814-20.186,45-45,45c-8.291,0-15,6.709-15,15s6.709,15,15,15
	c41.353,0,75-33.647,75-75v-15v-15v-15H482z"/>
<path style="fill:#FC4629;" d="M452,255.514c0,39.3-15,76.5-42.599,104.7L227,386.613l-115.499,16.5
	c-24.3-15-44.101-34.799-57.902-57.599H0v-120h39.5c6.599-19.501,18.6-39,36-58.801l-49.801-49.799L36.5,106.413
	c39.3-39.6,107.999-39.899,147.599-0.899H302C384.8,105.514,452,172.713,452,255.514z"/>
<path style="fill:#FF2615;" d="M452,255.514c0,39.3-15,76.5-42.599,104.7L227,386.613v-281.1h75
	C384.8,105.514,452,172.713,452,255.514z"/>
<path style="fill:#6ECD24;" d="M212,375.514v30H92v-30c0-33.001,27.001-60,60-60c16.5,0,31.5,6.599,42.299,17.699
	C205.401,344.014,212,359.014,212,375.514z"/>
<path style="fill:#66BD21;" d="M212,375.514v30h-60v-90c16.5,0,31.5,6.599,42.299,17.699C205.401,344.014,212,359.014,212,375.514z"
	/>
<path style="fill:#FEDB41;" d="M332,375.514v30H212v-30c0-33.001,27.001-60,60-60c16.5,0,31.5,6.599,42.299,17.699
	C325.401,344.014,332,359.014,332,375.514z"/>
<path style="fill:#FCBF29;" d="M332,375.514v30h-60v-90c16.5,0,31.5,6.599,42.299,17.699C325.401,344.014,332,359.014,332,375.514z"
	/>
<path style="fill:#6ECD24;" d="M452,375.514v30H332v-30c0-33.001,27.001-60,60-60c16.5,0,31.5,6.599,42.299,17.699
	C445.401,344.014,452,359.014,452,375.514z"/>
<path style="fill:#66BD21;" d="M452,375.514v30h-60v-90c16.5,0,31.5,6.599,42.299,17.699C445.401,344.014,452,359.014,452,375.514z"
	/>
<path style="fill:#994C0F;" d="M482,375.514v15c0,24.899-20.099,45-45,45H47c-24.901,0-47-20.101-47-45v-15H482z"/>
<rect x="92" y="225.51" style="fill:#57555C;" width="30" height="30"/>
<path style="fill:#713708;" d="M482,375.514v15c0,24.899-20.099,45-45,45H227v-60H482z"/>
<g>
</g>
<g>
</g>
<g>
</g>
<g>
</g>
<g>
</g>
<g>
</g>
<g>
</g>
<g>
</g>
<g>
</g>
<g>
</g>
<g>
</g>
<g>
</g>
<g>
</g>
<g>
</g>
<g>
</g>
</svg>
