<?xml version="1.0" encoding="iso-8859-1"?>
<!-- Generator: Adobe Illustrator 19.0.0, SVG Export Plug-In . SVG Version: 6.00 Build 0)  -->
<svg version="1.1" id="Capa_1" xmlns="http://www.w3.org/2000/svg" xmlns:xlink="http://www.w3.org/1999/xlink" x="0px" y="0px"
	 viewBox="0 0 512.002 512.002" style="enable-background:new 0 0 512.002 512.002;" xml:space="preserve">
<path style="fill:#66BD21;" d="M439.932,380.932c0-10.85,5.839-20.955,15.24-26.38c13.977-8.075,23.989-21.11,28.15-36.702
	c4.183-15.592,2.04-31.878-6.025-45.844c-2.267-3.924-3.644-8.345-3.996-12.817c-0.642-8.2-7.816-14.422-16.11-13.77
	l-149.605,22.384c-0.363,4.545-62.265,199.611-59.273,202.604c2.443,2.443,5.735,4.058,9.432,4.338
	c4.473,0.352,8.883,1.739,12.786,3.986c28.855,16.658,65.899,6.74,82.588-22.125c5.415-9.391,15.52-15.23,26.37-15.23
	C412.827,441.374,439.932,414.269,439.932,380.932z"/>
<g>
	<path style="fill:#FF2615;" d="M371.931,288.56l-42.407-42.407l84.814-84.814l42.407,42.407c23.42,23.42,23.42,61.393,0,84.814l0,0
		C433.325,311.98,395.353,311.98,371.931,288.56z"/>
	<path style="fill:#FF2615;" d="M287.117,373.374l-42.407-42.407l84.814-84.814l42.407,42.407c23.42,23.42,23.42,61.393,0,84.814
		l0,0C348.511,396.794,310.538,396.794,287.117,373.374z"/>
	<path style="fill:#FF2615;" d="M202.304,458.188l-42.407-42.407l84.814-84.814l42.407,42.407c23.42,23.42,23.42,61.393,0,84.814
		l0,0C263.697,481.609,225.724,481.609,202.304,458.188z"/>
</g>
<path style="fill:#FEDB41;" d="M329.525,330.966C208.453,452.038,61.996,547.658,13.228,498.89
	c-26.717-26.717-11.087-81.837,30.048-147.568l72.517-9.753L96.921,276.05c10.602-13.146,21.84-26.505,33.504-39.438l75.483-31.383
	l-12.721-34.349c14.208-13.783,28.624-27.354,43.256-40.288l70.184-22.264L320.62,63.8C398.436,9.307,468.62-17.621,499.154,12.912
	C547.921,61.681,450.598,209.893,329.525,330.966z"/>
<path style="fill:#FCBF29;" d="M329.525,330.966C208.453,452.038,61.996,547.658,13.228,498.89L499.152,12.913
	C547.921,61.681,450.598,209.893,329.525,330.966z"/>
<g>
	<path style="fill:#FEA832;" d="M433.847,108.33l-15.904,12.087c-1.272,0.848-21.627,15.689-51.313,25.02
		c-13.994,4.666-30.321,7.843-47.708,7.845c-35.199,0-65.943-13.783-82.48-22.688c28.2-24.809,56.824-47.495,84.178-66.792
		c39.863,0.425,76.121,17.175,96.051,31.595c0.637,0.212,0.849,0.425,1.272,0.848L433.847,108.33z"/>
	<path style="fill:#FEA832;" d="M327.829,214.347l-15.904,12.087c-1.272,0.848-21.627,15.689-51.313,25.02
		c-13.994,4.666-30.321,7.843-47.708,7.845c-34.774,0-64.459-12.723-82.48-22.688c16.115-18.235,33.078-36.47,50.676-54.068
		c4.029-4.029,7.845-7.845,12.087-11.662c6.362-0.849,12.935-1.484,19.719-1.484c49.616-0.001,89.903,26.717,97.749,32.017
		c0.849,0.425,1.06,0.636,1.272,0.848L327.829,214.347z"/>
	<path style="fill:#FEA832;" d="M221.812,320.365l-15.905,12.086c-1.272,0.848-21.627,15.689-51.313,25.02
		c-13.994,4.666-30.321,7.844-47.708,7.845c-24.597,0-46.436-6.573-63.611-13.995c14.843-24.171,33.079-49.615,53.645-75.273
		c3.182-0.212,6.574-0.637,9.966-0.636c49.616-0.001,89.903,26.717,97.749,32.017c0.849,0.425,1.06,0.636,1.272,0.848
		L221.812,320.365z"/>
</g>
<g>
	<path style="fill:#FE9923;" d="M205.907,308.279l15.904,12.087l-15.904,12.086c-1.272,0.848-21.627,15.689-51.313,25.02
		l50.04-50.04C205.484,307.856,205.695,308.067,205.907,308.279z"/>
	<path style="fill:#FE9923;" d="M311.925,202.261l15.904,12.086l-15.904,12.087c-1.272,0.848-21.627,15.689-51.313,25.02
		l50.04-50.04C311.502,201.838,311.713,202.049,311.925,202.261z"/>
	<path style="fill:#FE9923;" d="M417.943,120.415c-1.272,0.848-21.627,15.689-51.313,25.02l50.04-50.04
		c0.637,0.212,0.849,0.425,1.272,0.848l15.904,12.087L417.943,120.415z"/>
</g>
<g>
</g>
<g>
</g>
<g>
</g>
<g>
</g>
<g>
</g>
<g>
</g>
<g>
</g>
<g>
</g>
<g>
</g>
<g>
</g>
<g>
</g>
<g>
</g>
<g>
</g>
<g>
</g>
<g>
</g>
</svg>
