<?xml version="1.0" encoding="iso-8859-1"?>
<!-- Generator: Adobe Illustrator 19.0.0, SVG Export Plug-In . SVG Version: 6.00 Build 0)  -->
<svg version="1.1" id="Capa_1" xmlns="http://www.w3.org/2000/svg" xmlns:xlink="http://www.w3.org/1999/xlink" x="0px" y="0px"
	 viewBox="0 0 512 512" style="enable-background:new 0 0 512 512;" xml:space="preserve">
<path style="fill:#66BD21;" d="M361,512L361,512c-33.137,0-60-27.863-60-61v-30h120v30C421,484.137,394.137,512,361,512z"/>
<path style="fill:#FF2615;" d="M241,512L241,512c-33.137,0-60-27.863-60-61v-30h120v30C301,484.137,274.137,512,241,512z"/>
<path style="fill:#66BD21;" d="M451,271h-30V151h30c33.137,0,61,26.863,61,60l0,0C512,244.137,484.137,271,451,271z"/>
<path style="fill:#FF2615;" d="M451,391h-30V271h30c33.137,0,61,26.863,61,60l0,0C512,364.137,484.137,391,451,391z"/>
<path style="fill:#6ECD24;" d="M211,91H91V61c0-33.137,26.863-61,60-61l0,0c33.137,0,60,27.863,60,61V91z"/>
<path style="fill:#FC4629;" d="M331,91H211V61c0-33.137,26.863-61,60-61l0,0c33.137,0,60,27.863,60,61V91z"/>
<path style="fill:#6ECD24;" d="M91,331H61c-33.137,0-61-26.863-61-60l0,0c0-33.137,27.863-60,61-60h30V331z"/>
<path style="fill:#FC4629;" d="M91,211H61c-33.137,0-61-26.863-61-60l0,0c0-33.137,27.863-60,61-60h30V211z"/>
<path style="fill:#FEC478;" d="M451,451H67.196L451,102.089V451z"/>
<path style="fill:#FEDBAB;" d="M61,409.911V61h383.804L61,409.911z"/>
<g>
	<rect x="361" y="361" style="fill:#FE9923;" width="30" height="30"/>
	<rect x="271" y="361" style="fill:#FE9923;" width="30" height="30"/>
	<rect x="361" y="271" style="fill:#FE9923;" width="30" height="30"/>
</g>
<g>
	<rect x="121" y="121" style="fill:#FEA832;" width="30" height="30"/>
	<rect x="121" y="211" style="fill:#FEA832;" width="30" height="30"/>
	<rect x="211" y="121" style="fill:#FEA832;" width="30" height="30"/>
</g>
<g>
</g>
<g>
</g>
<g>
</g>
<g>
</g>
<g>
</g>
<g>
</g>
<g>
</g>
<g>
</g>
<g>
</g>
<g>
</g>
<g>
</g>
<g>
</g>
<g>
</g>
<g>
</g>
<g>
</g>
</svg>
