<?xml version="1.0" encoding="iso-8859-1"?>
<!-- Generator: Adobe Illustrator 19.0.0, SVG Export Plug-In . SVG Version: 6.00 Build 0)  -->
<svg version="1.1" id="Capa_1" xmlns="http://www.w3.org/2000/svg" xmlns:xlink="http://www.w3.org/1999/xlink" x="0px" y="0px"
	 viewBox="0 0 512.001 512.001" style="enable-background:new 0 0 512.001 512.001;" xml:space="preserve">
<path style="fill:#10BB67;" d="M392,257c0,107.699-87.299,195-195,195S0,364.699,0,257C0,149.299,89.299,62,197,62
	S392,149.299,392,257z"/>
<path style="fill:#0CA656;" d="M392,257c0,107.699-87.299,195-195,195V62C304.701,62,392,149.299,392,257z"/>
<path style="fill:#32D736;" d="M302,257c0,107.699-47.1,195-105,195S92,364.699,92,257c0-107.701,47.1-195,105-195
	S302,149.299,302,257z"/>
<path style="fill:#10BB67;" d="M302,257c0,107.699-47.1,195-105,195V62C254.9,62,302,149.299,302,257z"/>
<path style="fill:#6ECD24;" d="M423.064,147.292l31.82,31.82c76.155,76.155,76.156,199.616,0,275.772s-199.617,76.155-275.772,0
	l-31.82-31.82l42.426-42.426l53.033,10.607l148.492-148.492l-10.607-53.033L423.064,147.292z"/>
<path style="fill:#66BD21;" d="M316.998,316.998l137.886,137.886c-76.156,76.156-199.617,76.155-275.772,0l-31.82-31.82
	l42.426-42.426l53.033,10.607L316.998,316.998z"/>
<path style="fill:#FC4629;" d="M380.637,189.718l31.82,31.82c52.821,52.821,52.821,138.098,0,190.919s-138.098,52.821-190.919,0
	l-31.82-31.82L380.637,189.718z"/>
<path style="fill:#FF2615;" d="M285.178,285.178l127.279,127.279c-52.821,52.821-138.098,52.821-190.919,0l-31.82-31.82
	L285.178,285.178z"/>
<path style="fill:#57555C;" d="M395.634,310.791h-30c-8.291,0-15-6.709-15-15s6.709-15,15-15h30c8.291,0,15,6.709,15,15
	S403.925,310.791,395.634,310.791z"/>
<path style="fill:#3C3A41;" d="M295.791,410.634c-8.291,0-15-6.709-15-15v-30c0-8.291,6.709-15,15-15s15,6.709,15,15v30
	C310.791,403.926,304.082,410.634,295.791,410.634z"/>
<path style="fill:#57555C;" d="M348.818,327.604l21.213,21.213c5.939,5.939,5.94,15.273,0,21.213s-15.274,5.939-21.213,0
	l-21.213-21.213c-5.94-5.94-5.94-15.273,0-21.213C333.545,321.664,342.877,321.664,348.818,327.604z"/>
<path style="fill:#3C3A41;" d="M327.604,327.604l42.426,42.426c-5.94,5.94-15.274,5.939-21.213,0l-21.213-21.213
	C321.664,342.877,321.664,333.545,327.604,327.604z"/>
<path style="fill:#BF6015;" d="M302,0v30h-45c-24.901,0-45,22.099-45,47c0,8.399-6.599,15-15,15s-15-6.601-15-15
	c0-16.8,5.4-34.401,15-46.7C210.5,11.999,232.4,0,257,0H302z"/>
<path style="fill:#713708;" d="M302,0v30h-45c-24.901,0-45,22.099-45,47c0,8.399-6.599,15-15,15V30.3C210.5,11.999,232.4,0,257,0
	H302z"/>
<g>
</g>
<g>
</g>
<g>
</g>
<g>
</g>
<g>
</g>
<g>
</g>
<g>
</g>
<g>
</g>
<g>
</g>
<g>
</g>
<g>
</g>
<g>
</g>
<g>
</g>
<g>
</g>
<g>
</g>
</svg>
