<?xml version="1.0" encoding="iso-8859-1"?>
<!-- Generator: Adobe Illustrator 19.0.0, SVG Export Plug-In . SVG Version: 6.00 Build 0)  -->
<svg version="1.1" id="Capa_1" xmlns="http://www.w3.org/2000/svg" xmlns:xlink="http://www.w3.org/1999/xlink" x="0px" y="0px"
	 viewBox="0 0 512.012 512.012" style="enable-background:new 0 0 512.012 512.012;" xml:space="preserve">
<path style="fill:#FEA832;" d="M286.674,310.336l-21.213-63.64l-63.64-21.213c-17.607-17.607-46.032-17.607-63.64,0l-72.53,74.246
	l148.492,148.492l72.53-74.246C304.282,356.369,304.282,327.944,286.674,310.336z"/>
<path style="fill:#FE9923;" d="M286.674,373.976l-72.53,74.246l-74.246-74.246l125.563-127.279l21.213,63.64
	C304.282,327.944,304.282,356.369,286.674,373.976z"/>
<path style="fill:#FEA832;" d="M406.53,175.633l-13.789-56.216l-56.216-13.789c-36.911,18.243-66.61,47.942-84.853,84.853
	l13.789,56.215l56.215,13.789C358.588,242.243,388.287,212.544,406.53,175.633z"/>
<path style="fill:#FE9923;" d="M321.677,260.486l-56.215-13.789l127.279-127.279l13.789,56.216
	C388.287,212.544,358.588,242.243,321.677,260.486z"/>
<g>
	<path style="fill:#57555C;" d="M360.921,299.73l-10.607,10.607c-17.606,17.606-46.032,17.607-63.64,0l-84.852-84.853
		c-17.607-17.607-17.606-46.034,0-63.64l10.607-10.607L360.921,299.73z"/>
	<path style="fill:#57555C;" d="M498.806,98.204l-84.853-84.853c-17.607-17.607-46.032-17.607-63.64,0L297.28,66.384
		l148.492,148.492l53.033-53.033C516.414,144.237,516.414,115.812,498.806,98.204z"/>
</g>
<g>
	<path style="fill:#3C3A41;" d="M498.806,161.844l-53.033,53.033l-74.246-74.246l84.853-84.853l42.426,42.426
		C516.414,115.812,516.414,144.237,498.806,161.844z"/>
	<path style="fill:#3C3A41;" d="M286.674,225.484l74.246,74.246l-10.607,10.607c-17.606,17.606-46.032,17.607-63.64,0
		l-42.426-42.426L286.674,225.484z"/>
</g>
<g>
	
		<rect x="48.653" y="348.373" transform="matrix(-0.7071 -0.7071 0.7071 -0.7071 -148.2817 665.326)" style="fill:#57555C;" width="30" height="30"/>
	
		<rect x="91.078" y="390.787" transform="matrix(-0.7071 0.7071 -0.7071 -0.7071 468.0207 617.7123)" style="fill:#57555C;" width="30" height="30"/>
</g>
<g>
	
		<rect x="133.503" y="433.218" transform="matrix(-0.7071 -0.7071 0.7071 -0.7071 -63.4281 870.1633)" style="fill:#3C3A41;" width="30" height="30"/>
	
		<rect x="69.868" y="454.428" transform="matrix(-0.7071 -0.7071 0.7071 -0.7071 -187.0579 861.3738)" style="fill:#3C3A41;" width="30" height="30"/>
</g>
<g>
	
		<rect x="27.44" y="412.006" transform="matrix(-0.7071 -0.7071 0.7071 -0.7071 -229.4898 758.9532)" style="fill:#57555C;" width="30" height="30"/>
	
		<rect x="6.213" y="475.646" transform="matrix(-0.7071 0.7071 -0.7071 -0.7071 383.1521 822.5856)" style="fill:#57555C;" width="30" height="30"/>
</g>
<g>
	
		<rect x="96.38" y="403.604" transform="matrix(-0.7071 0.7071 -0.7071 -0.7071 480.8321 623.0397)" style="fill:#3C3A41;" width="30" height="15"/>
	
		<rect x="19.026" y="480.956" transform="matrix(0.7071 0.7071 -0.7071 0.7071 358.463 126.5056)" style="fill:#3C3A41;" width="15" height="30"/>
</g>
<g>
</g>
<g>
</g>
<g>
</g>
<g>
</g>
<g>
</g>
<g>
</g>
<g>
</g>
<g>
</g>
<g>
</g>
<g>
</g>
<g>
</g>
<g>
</g>
<g>
</g>
<g>
</g>
<g>
</g>
</svg>
