<?xml version="1.0" encoding="iso-8859-1"?>
<!-- Generator: Adobe Illustrator 19.0.0, SVG Export Plug-In . SVG Version: 6.00 Build 0)  -->
<svg version="1.1" id="Capa_1" xmlns="http://www.w3.org/2000/svg" xmlns:xlink="http://www.w3.org/1999/xlink" x="0px" y="0px"
	 viewBox="0 0 512 512" style="enable-background:new 0 0 512 512;" xml:space="preserve">
<path style="fill:#BF0000;" d="M370.6,130.199L256,210l-114.6-79.801C164.5,85.499,206.201,60,256,60S347.5,85.499,370.6,130.199z"
	/>
<path style="fill:#AA0031;" d="M370.6,130.199L256,210V60C305.799,60,347.5,85.499,370.6,130.199z"/>
<path style="fill:#6ECD24;" d="M361,0v30h-45c-24.901,0-45,20.099-45,45v60c0,8.399-6.599,15-15,15s-15-6.601-15-15V75
	c0-16.8,5.4-32.401,15-44.7C269.5,11.999,291.4,0,316,0H361z"/>
<path style="fill:#66BD21;" d="M361,0v30h-45c-24.901,0-45,20.099-45,45v60c0,8.399-6.599,15-15,15V30.3C269.5,11.999,291.4,0,316,0
	H361z"/>
<path style="fill:#FF2615;" d="M136,120c-48.442,0-105,39.287-105,150c0,99.331,43.124,212,105,212
	c13.345,0,33.53-5.479,53.906-31.582l9.463-305.12C182.011,128.745,160.097,120,136,120z"/>
<path style="fill:#BF0000;" d="M376,120c-24.097,0-46.011,8.745-63.369,25.298l9.463,305.12C342.47,476.521,362.655,482,376,482
	c61.874,0,105-112.669,105-212C481,159.287,424.442,120,376,120z"/>
<path style="fill:#FC4629;" d="M256,120c-81.899,0-135,64.799-135,165c0,106.199,57.599,227,135,227s135-120.801,135-227
	C391,184.799,337.899,120,256,120z"/>
<path style="fill:#FF2615;" d="M391,285c0,106.199-57.599,227-135,227V120C337.899,120,391,184.799,391,285z"/>
<g>
</g>
<g>
</g>
<g>
</g>
<g>
</g>
<g>
</g>
<g>
</g>
<g>
</g>
<g>
</g>
<g>
</g>
<g>
</g>
<g>
</g>
<g>
</g>
<g>
</g>
<g>
</g>
<g>
</g>
</svg>
