<?xml version="1.0" encoding="iso-8859-1"?>
<!-- Generator: Adobe Illustrator 19.0.0, SVG Export Plug-In . SVG Version: 6.00 Build 0)  -->
<svg version="1.1" id="Capa_1" xmlns="http://www.w3.org/2000/svg" xmlns:xlink="http://www.w3.org/1999/xlink" x="0px" y="0px"
	 viewBox="0 0 512 512" style="enable-background:new 0 0 512 512;" xml:space="preserve">
<path style="fill:#DFCCBF;" d="M31,30v331h450V30H31z M61,60h390v30H61V60z M61,120h390v31H61V120z M61,181h390v30H61V181z M61,241
	h390v30H61V241z M61,331v-30h390v30H61z"/>
<polygon style="fill:#C8AD92;" points="256,271 451,271 451,241 256,241 256,211 451,211 451,181 256,181 256,151 451,151 451,120 
	256,120 256,90 451,90 451,60 256,60 256,30 481,30 481,361 256,361 256,331 451,331 451,301 256,301 "/>
<path style="fill:#DFCCBF;" d="M331,45c0,8.399-6.599,15-15,15H196c-8.401,0-15-6.601-15-15c0-8.401,6.599-15,15-15h120
	C324.401,30,331,36.599,331,45z"/>
<path style="fill:#57555C;" d="M121,0v467c0,24.899,20.099,45,45,45s45-20.101,45-45V0H121z"/>
<path style="fill:#3C3A41;" d="M211,0v467c0,24.899-20.099,45-45,45V0H211z"/>
<path style="fill:#57555C;" d="M301,0v467c0,24.899,20.099,45,45,45s45-20.101,45-45V0H301z"/>
<path style="fill:#3C3A41;" d="M391,0v467c0,24.899-20.099,45-45,45V0H391z"/>
<g>
</g>
<g>
</g>
<g>
</g>
<g>
</g>
<g>
</g>
<g>
</g>
<g>
</g>
<g>
</g>
<g>
</g>
<g>
</g>
<g>
</g>
<g>
</g>
<g>
</g>
<g>
</g>
<g>
</g>
</svg>
