<?xml version="1.0" encoding="iso-8859-1"?>
<!-- Generator: Adobe Illustrator 19.0.0, SVG Export Plug-In . SVG Version: 6.00 Build 0)  -->
<svg version="1.1" id="Capa_1" xmlns="http://www.w3.org/2000/svg" xmlns:xlink="http://www.w3.org/1999/xlink" x="0px" y="0px"
	 viewBox="0 0 512 512" style="enable-background:new 0 0 512 512;" xml:space="preserve">
<rect x="106" y="90" style="fill:#FEDB41;" width="60" height="241"/>
<rect x="136" y="90" style="fill:#FCBF29;" width="30" height="241"/>
<rect x="166" y="60" style="fill:#FEDB41;" width="60" height="241"/>
<rect x="196" y="60" style="fill:#FCBF29;" width="30" height="241"/>
<rect x="226" style="fill:#FEDB41;" width="60" height="301"/>
<rect x="256" style="fill:#FCBF29;" width="30" height="301"/>
<rect x="286" y="60" style="fill:#FEDB41;" width="60" height="241"/>
<rect x="316" y="60" style="fill:#FCBF29;" width="30" height="241"/>
<rect x="346" y="90" style="fill:#FEDB41;" width="60" height="241"/>
<rect x="376" y="90" style="fill:#FCBF29;" width="30" height="241"/>
<path style="fill:#FC4629;" d="M336.7,181l-30,60H205.3l-30-60H61v100.201C61,345.7,71.499,410.6,91.901,471.799l1.8,5.7l5.7,3.001
	C140.501,501.2,187,512,233.2,512h45.6c46.199,0,92.699-10.8,133.799-31.5l5.7-3.001l1.8-5.7C440.501,410.6,451,345.7,451,281.201
	V181H336.7z"/>
<path style="fill:#FF2615;" d="M451,181v100.201c0,64.499-10.499,129.399-30.901,190.598l-1.8,5.7l-5.7,3.001
	C371.499,501.2,325,512,278.8,512H256V241h50.7l30-60H451z"/>
<path style="fill:#FEDB41;" d="M256,301c-60,0-105,25.8-105,60s45,60,105,60s105-25.8,105-60S316,301,256,301z"/>
<path style="fill:#FCBF29;" d="M361,361c0,34.2-45,60-105,60V301C316,301,361,326.8,361,361z"/>
<g>
</g>
<g>
</g>
<g>
</g>
<g>
</g>
<g>
</g>
<g>
</g>
<g>
</g>
<g>
</g>
<g>
</g>
<g>
</g>
<g>
</g>
<g>
</g>
<g>
</g>
<g>
</g>
<g>
</g>
</svg>
