<?xml version="1.0" encoding="iso-8859-1"?>
<!-- Generator: Adobe Illustrator 19.0.0, SVG Export Plug-In . SVG Version: 6.00 Build 0)  -->
<svg version="1.1" id="Capa_1" xmlns="http://www.w3.org/2000/svg" xmlns:xlink="http://www.w3.org/1999/xlink" x="0px" y="0px"
	 viewBox="0 0 512 512" style="enable-background:new 0 0 512 512;" xml:space="preserve">
<polygon style="fill:#EFE6DE;" points="180,0 180,91 135,121 90,91 90,0 "/>
<polygon style="fill:#DFCCBF;" points="180,0 180,91 135,121 135,0 "/>
<path style="fill:#FEDB41;" d="M213.9,179.5L135,244.6l-78.9-65.1c8.101-6,14.7-13.5,20.099-21.901C85.8,142.599,90,122.8,90,112V91
	h90v21c0,10.199,4.2,30.599,13.801,45.599C199.2,166,205.8,173.5,213.9,179.5z"/>
<path style="fill:#FCBF29;" d="M213.9,179.5L135,244.6V91h45v21c0,10.199,4.2,30.599,13.801,45.599
	C199.2,166,205.8,173.5,213.9,179.5z"/>
<path style="fill:#57555C;" d="M270,280v232H0v-60l30-31V301L0.601,271C3.3,235.6,21.9,203.5,51.6,183.401
	c1.802-0.901,3.001-2.701,4.501-3.9l78.9,27.9l78.9-27.9c1.5,1.199,2.699,2.999,4.501,3.9C250.8,205,270,241.3,270,280z"/>
<path style="fill:#3C3A41;" d="M270,280v232H135V207.4l78.9-27.9c1.5,1.199,2.699,2.999,4.501,3.9C250.8,205,270,241.3,270,280z"/>
<path style="fill:#DFCCBF;" d="M421,406v91c0,8.401-6.599,15-15,15s-15-6.599-15-15v-91c0-8.401,6.599-15,15-15S421,397.599,421,406
	z"/>
<path style="fill:#C8AD92;" d="M421,406v91c0,8.401-6.599,15-15,15V391C414.401,391,421,397.599,421,406z"/>
<polygon style="fill:#EFE6DE;" points="512,181 512,276.7 479.299,290.2 406,300.099 345.601,308.5 300,247.899 300,181 "/>
<polygon style="fill:#DFCCBF;" points="512,181 512,276.7 479.299,290.2 406,300.099 406,181 "/>
<path style="fill:#FC4629;" d="M512,276.7V316c0,57.9-48.1,105-106,105s-106-47.1-106-105c0,0,0-64.799,0-68.101l45.601,30.601
	c15.899,10.499,38.2,8.401,51.7-5.099c2.699-2.701,5.7-5.101,8.699-7.5c20.7-15,49.6-17.401,73.299-5.7L512,276.7z"/>
<path style="fill:#FF2615;" d="M512,276.7V316c0,57.9-48.1,105-106,105V265.901c20.7-15,49.6-17.401,73.299-5.7L512,276.7z"/>
<path d="M0,271v9.082c0-3.06,0.326-6.063,0.562-9.082H0z"/>
<path style="fill:#FEDB41;" d="M180,271v181H0V280c0-2.999,0.3-6,0.601-9H180z"/>
<rect x="135" y="271" style="fill:#FCBF29;" width="45" height="181"/>
<rect x="60" style="fill:#57555C;" width="150" height="30"/>
<rect x="330" y="482" style="fill:#EFE6DE;" width="152" height="30"/>
<rect x="135" style="fill:#3C3A41;" width="75" height="30"/>
<rect x="406" y="482" style="fill:#DFCCBF;" width="76" height="30"/>
<g>
</g>
<g>
</g>
<g>
</g>
<g>
</g>
<g>
</g>
<g>
</g>
<g>
</g>
<g>
</g>
<g>
</g>
<g>
</g>
<g>
</g>
<g>
</g>
<g>
</g>
<g>
</g>
<g>
</g>
</svg>
