<?xml version="1.0" encoding="iso-8859-1"?>
<!-- Generator: Adobe Illustrator 19.0.0, SVG Export Plug-In . SVG Version: 6.00 Build 0)  -->
<svg version="1.1" id="Capa_1" xmlns="http://www.w3.org/2000/svg" xmlns:xlink="http://www.w3.org/1999/xlink" x="0px" y="0px"
	 viewBox="0 0 512 512" style="enable-background:new 0 0 512 512;" xml:space="preserve">
<path style="fill:#FEA832;" d="M342.294,403.052l-42.426,42.426l-77.429-77.429l-99.514,118.606
	c-12.516,15.062-30.759,24.397-50.275,25.245c-19.303,1.06-38.608-6.364-52.397-20.153S-0.96,458.654,0.1,439.351
	c0.848-19.516,10.183-37.759,25.245-50.275l118.606-99.514l-77.429-77.429l42.426-42.426l48.367,5.94L338.9,357.232L342.294,403.052
	z"/>
<path style="fill:#FE9923;" d="M338.901,357.232l3.394,45.82l-42.426,42.426l-77.429-77.429l-99.514,118.606
	c-12.516,15.062-30.759,24.397-50.275,25.245c-19.303,1.06-38.608-6.364-52.397-20.153l226.582-226.582L338.901,357.232z"/>
<polygon style="fill:#EFE6DE;" points="384.721,360.625 342.294,403.052 108.949,169.706 151.376,127.28 204.409,137.887 
	385.994,319.472 "/>
<polygon style="fill:#DFCCBF;" points="384.721,360.625 342.294,403.052 225.622,286.379 289.261,222.74 385.994,319.472 "/>
<polygon style="fill:#FC4629;" points="512,233.346 384.721,360.625 151.376,127.28 278.655,0.001 321.081,42.427 310.475,74.247 
	342.294,63.641 363.508,84.854 352.901,116.674 384.721,106.067 423.117,144.463 408.479,188.374 452.391,173.736 "/>
<polygon style="fill:#FF2615;" points="512,233.346 384.721,360.625 268.048,243.952 395.327,116.674 423.117,144.463 
	408.479,188.374 452.391,173.736 "/>
<g>
	
		<rect x="267.675" y="64.548" transform="matrix(0.7071 -0.7071 0.7071 0.7071 33.135 239.0898)" style="fill:#BF0000;" width="74.999" height="30"/>
	
		<rect x="310.1" y="106.974" transform="matrix(0.7071 -0.7071 0.7071 0.7071 15.5614 281.5154)" style="fill:#BF0000;" width="74.999" height="30"/>
</g>
<g>
</g>
<g>
</g>
<g>
</g>
<g>
</g>
<g>
</g>
<g>
</g>
<g>
</g>
<g>
</g>
<g>
</g>
<g>
</g>
<g>
</g>
<g>
</g>
<g>
</g>
<g>
</g>
<g>
</g>
</svg>
