<?xml version="1.0" encoding="iso-8859-1"?>
<!-- Generator: Adobe Illustrator 19.0.0, SVG Export Plug-In . SVG Version: 6.00 Build 0)  -->
<svg version="1.1" id="Capa_1" xmlns="http://www.w3.org/2000/svg" xmlns:xlink="http://www.w3.org/1999/xlink" x="0px" y="0px"
	 viewBox="0 0 512 512" style="enable-background:new 0 0 512 512;" xml:space="preserve">
<g>
	<path style="fill:#2B292C;" d="M351.661,202.765l42.426,42.426c5.858,5.858,15.355,5.858,21.213,0l0,0
		c5.858-5.858,5.858-15.355,0-21.213l-42.426-42.426L351.661,202.765z"/>
	<path style="fill:#2B292C;" d="M309.235,245.192l42.426,42.426c5.858,5.858,15.355,5.858,21.213,0l0,0
		c5.858-5.858,5.858-15.355,0-21.213l-42.426-42.426L309.235,245.192z"/>
	<path style="fill:#2B292C;" d="M394.088,160.339l42.426,42.426c5.858,5.858,15.355,5.858,21.213,0l0,0
		c5.858-5.858,5.858-15.355,0-21.213l-42.426-42.426L394.088,160.339z"/>
	<path style="fill:#2B292C;" d="M436.514,117.913l42.426,42.426c5.94,5.94,15.274,5.939,21.213,0l-10.607-31.82l-31.82-31.82
		L436.514,117.913z"/>
</g>
<g>
	<path style="fill:#3C3A41;" d="M309.235,160.339l-42.426-42.426c-5.858-5.858-5.858-15.355,0-21.213l0,0
		c5.858-5.858,15.355-5.858,21.213,0l42.426,42.426L309.235,160.339z"/>
	<path style="fill:#3C3A41;" d="M266.808,202.765l-4.393-4.393l-38.033-38.033c-5.858-5.858-5.858-15.355,0-21.213l0,0
		c5.858-5.858,15.355-5.858,21.213,0l42.426,42.426L266.808,202.765z"/>
	<path style="fill:#3C3A41;" d="M351.661,117.913l-42.426-42.426c-5.858-5.858-5.858-15.355,0-21.213l0,0
		c5.858-5.858,15.355-5.858,21.213,0L372.874,96.7L351.661,117.913z"/>
	<path style="fill:#3C3A41;" d="M394.088,75.486L351.661,33.06c-5.94-5.94-5.939-15.274,0-21.213l31.82,10.607l31.82,31.82
		L394.088,75.486z"/>
</g>
<path style="fill:#57555C;" d="M358.025,8.028c-16.546-6.789-34.576-9.546-53.032-7.213c-33.305,4.031-62.367,22.911-79.551,51.973
	l-54.094,96.944v42.427h42.427L383.481,22.453C375.42,16.513,367.147,11.634,358.025,8.028z"/>
<path style="fill:#3C3A41;" d="M459.212,286.558l-96.945,54.093h-42.426v-42.426l169.706-169.706
	c5.94,8.061,10.819,16.335,14.425,25.456c6.788,16.546,9.546,34.576,7.213,53.032C507.154,240.312,488.274,269.374,459.212,286.558z
	"/>
<path style="fill:#57555C;" d="M240.982,461.937l-10.607,10.607c-52.608,52.608-138.311,52.608-190.919,0
	c-52.608-52.608-52.608-138.31,0-190.919l10.607-10.607h42.426v42.426l-10.607,10.607c-29.274,29.274-29.274,76.792,0,106.066
	s76.792,29.274,106.066,0l10.607-10.607h42.426v42.427H240.982z"/>
<path style="fill:#3C3A41;" d="M240.982,461.937l-10.607,10.607c-52.608,52.608-138.311,52.608-190.919,0l42.426-42.426
	c29.274,29.274,76.792,29.274,106.066,0l10.607-10.607h42.426v42.426H240.982z"/>
<path style="fill:#DFCCBF;" d="M319.841,298.225c-2.87,2.87-126.798,126.798-121.286,121.286l42.426,42.426
	c3.788-3.788,123.641-123.641,121.286-121.286L319.841,298.225z"/>
<path style="fill:#EFE6DE;" d="M171.349,149.732c-2.87,2.87-126.798,126.798-121.286,121.286l42.426,42.426
	c3.788-3.788,123.641-123.641,121.286-121.286L171.349,149.732z"/>
<g>
</g>
<g>
</g>
<g>
</g>
<g>
</g>
<g>
</g>
<g>
</g>
<g>
</g>
<g>
</g>
<g>
</g>
<g>
</g>
<g>
</g>
<g>
</g>
<g>
</g>
<g>
</g>
<g>
</g>
</svg>
