<?xml version="1.0" encoding="iso-8859-1"?>
<!-- Generator: Adobe Illustrator 19.0.0, SVG Export Plug-In . SVG Version: 6.00 Build 0)  -->
<svg version="1.1" id="Capa_1" xmlns="http://www.w3.org/2000/svg" xmlns:xlink="http://www.w3.org/1999/xlink" x="0px" y="0px"
	 viewBox="0 0 512 512" style="enable-background:new 0 0 512 512;" xml:space="preserve">
<rect x="452" y="181" style="fill:#FEDBAB;" width="30" height="331"/>
<rect x="467" y="181" style="fill:#FEC478;" width="15" height="331"/>
<polygon style="fill:#57555C;" points="392,30 392,211 362,241 31,241 0,211 0,30 "/>
<polygon style="fill:#3C3A41;" points="392,30 392,211 362,241 196,241 196,30 "/>
<rect x="31" y="60" style="fill:#BF6015;" width="331" height="181"/>
<rect x="196" y="60" style="fill:#994C10;" width="166" height="181"/>
<path style="fill:#FEDBAB;" d="M76,45v181c0,8.399-6.599,15-15,15s-15-6.601-15-15V45c0-8.401,6.599-15,15-15S76,36.599,76,45z"/>
<path style="fill:#FEC478;" d="M76,45v181c0,8.399-6.599,15-15,15V30C69.401,30,76,36.599,76,45z"/>
<path style="fill:#FC4629;" d="M91,30c0,16.5-13.5,30-30,30S31,46.5,31,30S44.5,0,61,0S91,13.5,91,30z"/>
<path style="fill:#FF2615;" d="M91,30c0,16.5-13.5,30-30,30V0C77.5,0,91,13.5,91,30z"/>
<path style="fill:#FEDBAB;" d="M136,135v121c0,8.399-6.599,15-15,15s-15-6.601-15-15V135c0-8.401,6.599-15,15-15
	S136,126.599,136,135z"/>
<path style="fill:#FEC478;" d="M136,135v121c0,8.399-6.599,15-15,15V120C129.401,120,136,126.599,136,135z"/>
<path style="fill:#FC4629;" d="M151,120c0,16.5-13.5,30-30,30s-30-13.5-30-30s13.5-30,30-30S151,103.5,151,120z"/>
<path style="fill:#FF2615;" d="M151,120c0,16.5-13.5,30-30,30V90C137.5,90,151,103.5,151,120z"/>
<path style="fill:#FEDBAB;" d="M196,135v121c0,8.399-6.599,15-15,15s-15-6.601-15-15V135c0-8.401,6.599-15,15-15
	S196,126.599,196,135z"/>
<path style="fill:#FEC478;" d="M196,135v121c0,8.399-6.599,15-15,15V120C189.401,120,196,126.599,196,135z"/>
<path style="fill:#FC4629;" d="M211,120c0,16.5-13.5,30-30,30s-30-13.5-30-30s13.5-30,30-30S211,103.5,211,120z"/>
<path style="fill:#FF2615;" d="M211,120c0,16.5-13.5,30-30,30V90C197.5,90,211,103.5,211,120z"/>
<path style="fill:#FEDBAB;" d="M256,135v121c0,8.399-6.599,15-15,15s-15-6.601-15-15V135c0-8.401,6.599-15,15-15
	S256,126.599,256,135z"/>
<path style="fill:#FEC478;" d="M256,135v121c0,8.399-6.599,15-15,15V120C249.401,120,256,126.599,256,135z"/>
<path style="fill:#FC4629;" d="M271,120c0,16.5-13.5,30-30,30s-30-13.5-30-30s13.5-30,30-30S271,103.5,271,120z"/>
<path style="fill:#FF2615;" d="M271,120c0,16.5-13.5,30-30,30V90C257.5,90,271,103.5,271,120z"/>
<path style="fill:#FEDBAB;" d="M316,135v121c0,8.399-6.599,15-15,15s-15-6.601-15-15V135c0-8.401,6.599-15,15-15
	S316,126.599,316,135z"/>
<path style="fill:#FEC478;" d="M316,135v121c0,8.399-6.599,15-15,15V120C309.401,120,316,126.599,316,135z"/>
<path style="fill:#FC4629;" d="M331,120c0,16.5-13.5,30-30,30s-30-13.5-30-30s13.5-30,30-30S331,103.5,331,120z"/>
<path style="fill:#FF2615;" d="M331,120c0,16.5-13.5,30-30,30V90C317.5,90,331,103.5,331,120z"/>
<path style="fill:#FC4629;" d="M0,211v301h392V211H0z"/>
<rect x="196" y="211" style="fill:#FF2615;" width="196" height="301"/>
<path style="fill:#FEDB41;" d="M250.901,367c0-0.3,0-0.601-0.3-0.901c-0.3-0.899-0.901-2.1-1.199-2.401
	c-0.3-0.899-0.901-1.8-1.501-2.399L196,270.7l-54.901,96C137.8,374.5,136,382.599,136,391c0,32.999,27.001,60,60,60s60-27.001,60-60
	C256,382.599,254.2,374.5,250.901,367z"/>
<path style="fill:#FCBF29;" d="M250.901,367c3.3,7.5,5.099,15.599,5.099,24c0,32.999-27.001,60-60,60V270.7l51.899,90.601
	c0.601,0.599,1.201,1.5,1.501,2.399c0.298,0.3,0.899,1.501,1.199,2.401C250.901,366.4,250.901,366.7,250.901,367z"/>
<path style="fill:#FC4629;" d="M467,121c-24.901,0-45,20.099-45,45c0,24.899,20.099,45,45,45s45-20.101,45-45
	C512,141.099,491.901,121,467,121z"/>
<path style="fill:#FF2615;" d="M512,166c0,24.899-20.099,45-45,45v-90C491.901,121,512,141.099,512,166z"/>
<g>
</g>
<g>
</g>
<g>
</g>
<g>
</g>
<g>
</g>
<g>
</g>
<g>
</g>
<g>
</g>
<g>
</g>
<g>
</g>
<g>
</g>
<g>
</g>
<g>
</g>
<g>
</g>
<g>
</g>
</svg>
