<?xml version="1.0" encoding="iso-8859-1"?>
<!-- Generator: Adobe Illustrator 19.0.0, SVG Export Plug-In . SVG Version: 6.00 Build 0)  -->
<svg version="1.1" id="Capa_1" xmlns="http://www.w3.org/2000/svg" xmlns:xlink="http://www.w3.org/1999/xlink" x="0px" y="0px"
	 viewBox="0 0 512 512" style="enable-background:new 0 0 512 512;" xml:space="preserve">
<path style="fill:#57555C;" d="M512,21.301c-3.6,3.3-56.1,56.098-53.101,52.798c-5.999,6-15.3,6-20.999,0c-6-5.7-6-15,0-21
	C441.2,49.499,490.7,0,490.7,0l10.5,10.801L512,21.301z"/>
<path style="fill:#3C3A41;" d="M512,21.301c-3.6,3.3-56.1,56.098-53.101,52.798c-5.999,6-15.3,6-20.999,0l63.3-63.298L512,21.301z"
	/>
<path style="fill:#FC4629;" d="M289.261,222.74c-23.334-23.334-61.518-23.335-84.853,0c-23.334,23.334-23.334,61.519,0,84.853
	s61.519,23.334,84.853,0C312.597,284.257,312.595,246.074,289.261,222.74z"/>
<path style="fill:#FF2615;" d="M204.41,307.591l84.853-84.853c23.334,23.334,23.335,61.518,0,84.853
	C265.927,330.925,227.743,330.925,204.41,307.591z"/>
<path style="fill:#FEDB41;" d="M172.59,233.346l-57.629,57.629L221.027,397.04l57.629-57.629L172.59,233.346z"/>
<rect x="185.824" y="300.968" transform="matrix(0.7071 0.7071 -0.7071 0.7071 307.0411 -57.8271)" style="fill:#FCBF29;" width="74.999" height="81.499"/>
<path style="fill:#57555C;" d="M102.354,494.499c-23.334,23.334-61.519,23.334-84.853,0s-23.334-61.519,0-84.853
	c19.728-19.728,49.852-22.698,72.973-9.334l13.879-13.879c5.94-5.94,15.273-5.94,21.213,0c5.94,5.94,5.94,15.273,0,21.213
	l-33.82,33.82L81.141,430.86c-11.667-11.667-30.759-11.667-42.426,0s-11.667,30.759,0,42.426s30.759,11.667,42.426,0
	L102.354,494.499z"/>
<path style="fill:#FC4629;" d="M416.541,95.459c-23.334-23.334-61.518-23.335-84.853,0c-23.334,23.334-23.334,61.519,0,84.853
	s61.519,23.334,84.853,0C439.876,156.978,439.875,118.793,416.541,95.459z"/>
<g>
	<path style="fill:#3C3A41;" d="M91.747,441.466L81.141,430.86l44.426-44.426c5.94,5.94,5.94,15.273,0,21.213L91.747,441.466z"/>
	<path style="fill:#3C3A41;" d="M102.354,494.499c-23.334,23.334-61.519,23.334-84.853,0l21.213-21.213
		c11.667,11.667,30.759,11.667,42.426,0L102.354,494.499z"/>
</g>
<path style="fill:#FF2615;" d="M331.688,180.313l84.853-84.853c23.334,23.334,23.335,61.518,0,84.853
	C393.207,203.646,355.022,203.646,331.688,180.313z"/>
<path style="fill:#6ECD24;" d="M278.655,84.853L268.048,95.46c-40.941,40.941-40.941,107.551,0,148.492s107.551,40.941,148.492,0
	l10.607-10.607L278.655,84.853z"/>
<path style="fill:#66BD21;" d="M427.147,233.346l-10.607,10.607c-40.941,40.941-107.551,40.941-148.492,0l84.853-84.853
	L427.147,233.346z"/>
<path style="fill:#FEDB41;" d="M405.934,0l-63.64,63.64L448.36,169.706l63.64-63.64L405.934,0z"/>
<rect x="416.154" y="66.364" transform="matrix(-0.7071 -0.7071 0.7071 -0.7071 695.6897 510.8905)" style="fill:#FCBF29;" width="74.999" height="89.999"/>
<path style="fill:#6ECD24;" d="M114.96,248.549l-10.607,10.607c-40.941,40.941-40.941,107.551,0,148.492s107.551,40.941,148.492,0
	l10.607-10.607L114.96,248.549z"/>
<path style="fill:#66BD21;" d="M263.452,397.04l-10.607,10.607c-40.941,40.941-107.551,40.941-148.492,0l84.853-84.853
	L263.452,397.04z"/>
<g>
</g>
<g>
</g>
<g>
</g>
<g>
</g>
<g>
</g>
<g>
</g>
<g>
</g>
<g>
</g>
<g>
</g>
<g>
</g>
<g>
</g>
<g>
</g>
<g>
</g>
<g>
</g>
<g>
</g>
</svg>
