<?xml version="1.0" encoding="iso-8859-1"?>
<!-- Generator: Adobe Illustrator 19.0.0, SVG Export Plug-In . SVG Version: 6.00 Build 0)  -->
<svg version="1.1" id="Capa_1" xmlns="http://www.w3.org/2000/svg" xmlns:xlink="http://www.w3.org/1999/xlink" x="0px" y="0px"
	 viewBox="0 0 512 512" style="enable-background:new 0 0 512 512;" xml:space="preserve">
<path style="fill:#57555C;" d="M512,106.261c-6.603,6.603-62.736,62.738-59.434,59.134c-6.004,6.004-15.309,6.004-21.313,0
	c-5.703-5.703-5.703-15.307,0-21.011l38.123-38.123l-63.637-63.637c-2.703,2.702-34.221,34.222-38.123,38.124l-0.3,0.298
	c-5.703,5.405-15.009,5.405-20.712-0.298c-6.003-6.004-6.003-15.309,0-21.313C352.607,53.13,405.738,0,405.738,0L512,106.261z"/>
<path style="fill:#3C3A41;" d="M512,106.261c-6.603,6.603-62.736,62.738-59.434,59.134c-6.004,6.004-15.309,6.004-21.313,0
	c-5.703-5.703-5.703-15.307,0-21.011l38.123-38.123l-31.819-31.819l21.311-21.313L512,106.261z"/>
<path style="fill:#57555C;" d="M167.699,450.264C161.696,456.567,106.262,512,106.262,512l-53.13-53.132L0,405.738
	c6.303-6.305,61.736-61.437,61.736-61.437c6.004-6.004,15.309-6.004,21.313,0c5.703,5.703,5.703,15.309,0,21.012
	c-2.703,2.701-36.522,36.522-40.426,40.425l63.637,63.637l40.425-40.425c5.703-5.703,15.309-5.703,21.012,0
	C173.701,434.955,173.701,444.26,167.699,450.264z"/>
<path style="fill:#3C3A41;" d="M167.699,428.95c6.003,6.004,6.003,15.309,0,21.313C161.696,456.567,106.262,512,106.262,512
	l-53.13-53.132l21.31-21.311l31.819,31.819l40.425-40.425C152.389,423.247,161.996,423.247,167.699,428.95z"/>
<path style="fill:#17ACE8;" d="M416.244,95.756c-40.824-40.825-96.956-66.039-159.093-66.039
	c-124.273,0-225.132,100.859-225.132,225.132c0,62.136,25.216,118.269,66.039,159.093s96.956,66.039,159.093,66.039
	c124.273,0,225.132-100.859,225.132-225.132C482.283,192.712,457.067,136.58,416.244,95.756z"/>
<path style="fill:#1689FC;" d="M482.283,254.849c0,124.273-100.859,225.132-225.132,225.132
	c-62.136,0-118.269-25.216-159.093-66.039L416.244,95.756C457.067,136.58,482.283,192.712,482.283,254.849z"/>
<path style="fill:#57555C;" d="M373.919,138.08c-30.018-29.717-71.142-48.328-116.768-48.328
	c-90.954,0-165.097,74.142-165.097,165.097c0,45.626,18.611,86.751,48.328,116.768c30.018,29.717,71.142,48.328,116.768,48.328
	c90.954,0,165.097-74.144,165.097-165.097C422.247,209.222,403.637,168.097,373.919,138.08z"/>
<path style="fill:#3C3A41;" d="M422.247,254.849c0,90.952-74.142,165.097-165.097,165.097c-45.628,0-86.751-18.611-116.768-48.328
	L373.919,138.08C403.637,168.097,422.247,209.222,422.247,254.849z"/>
<path style="fill:#FC4629;" d="M352.607,159.393c-24.614-24.614-58.234-39.623-95.456-39.623
	c-74.443,0-135.079,60.635-135.079,135.079c0,37.222,15.009,70.841,39.623,95.456c24.614,24.614,58.234,39.623,95.456,39.623
	c74.443,0,135.079-60.637,135.079-135.079C392.23,217.628,377.221,184.008,352.607,159.393z"/>
<path style="fill:#FF2615;" d="M352.607,159.393c24.614,24.614,39.623,58.234,39.623,95.456
	c0,74.443-60.637,135.079-135.079,135.079c-37.222,0-70.842-15.009-95.456-39.623L352.607,159.393z"/>
<g>
	<path style="fill:#57555C;" d="M182.107,134.779V374.92c0,8.104-6.603,15.009-15.009,15.009c-8.406,0-15.009-6.905-15.009-15.009
		V134.779c0-8.106,6.603-15.009,15.009-15.009C175.504,119.77,182.107,126.673,182.107,134.779z"/>
	<path style="fill:#57555C;" d="M242.142,107.762v294.172c0,8.406-6.603,15.009-15.009,15.009s-15.009-6.603-15.009-15.009V107.762
		c0-8.404,6.603-15.009,15.009-15.009S242.142,99.358,242.142,107.762z"/>
	<path style="fill:#57555C;" d="M302.177,107.762v294.172c0,8.406-6.603,15.009-15.009,15.009c-8.406,0-15.009-6.603-15.009-15.009
		V107.762c0-8.404,6.603-15.009,15.009-15.009C295.574,92.753,302.177,99.358,302.177,107.762z"/>
	<path style="fill:#57555C;" d="M362.212,134.779V374.92c0,8.104-6.603,15.009-15.009,15.009c-8.406,0-15.009-6.905-15.009-15.009
		V134.779c0-8.106,6.603-15.009,15.009-15.009C355.609,119.77,362.212,126.673,362.212,134.779z"/>
</g>
<g>
	<path style="fill:#3C3A41;" d="M152.089,359.911l30.018-30.018v45.026c0,8.104-6.603,15.009-15.009,15.009
		c-8.406,0-15.009-6.905-15.009-15.009V359.911z"/>
	<path style="fill:#3C3A41;" d="M212.124,299.876l30.018-30.018v132.076c0,8.406-6.603,15.009-15.009,15.009
		s-15.009-6.603-15.009-15.009V299.876z"/>
	<path style="fill:#3C3A41;" d="M272.159,239.841l30.018-30.018v192.112c0,8.406-6.603,15.009-15.009,15.009
		c-8.406,0-15.009-6.603-15.009-15.009V239.841z"/>
	<path style="fill:#3C3A41;" d="M362.212,149.788V374.92c0,8.104-6.603,15.009-15.009,15.009c-8.406,0-15.009-6.905-15.009-15.009
		V179.805L362.212,149.788z"/>
</g>
<g>
</g>
<g>
</g>
<g>
</g>
<g>
</g>
<g>
</g>
<g>
</g>
<g>
</g>
<g>
</g>
<g>
</g>
<g>
</g>
<g>
</g>
<g>
</g>
<g>
</g>
<g>
</g>
<g>
</g>
</svg>
