<?xml version="1.0" encoding="iso-8859-1"?>
<!-- Generator: Adobe Illustrator 19.0.0, SVG Export Plug-In . SVG Version: 6.00 Build 0)  -->
<svg version="1.1" id="Capa_1" xmlns="http://www.w3.org/2000/svg" xmlns:xlink="http://www.w3.org/1999/xlink" x="0px" y="0px"
	 viewBox="0 0 512.001 512.001" style="enable-background:new 0 0 512.001 512.001;" xml:space="preserve">
<path style="fill:#57555C;" d="M512,339.099V409.3l-8.401,3.9C423.5,452.199,319.9,466,256,466c-68.699,0-134.5-15.901-188.5-45.901
	C25.8,397,0,352.299,0,303.1V226l256,56.7L512,339.099z"/>
<path style="fill:#3C3A41;" d="M512,339.099V409.3l-8.401,3.9C423.5,452.199,319.9,466,256,466v-183.3L512,339.099z"/>
<path style="fill:#BF0000;" d="M482,136l-241,60.3l122.199,69C369.8,245.799,412.099,226,467,226c9.6,0,19.2,0.599,28.2,1.8
	l16.8,2.1V166L482,136z"/>
<path style="fill:#FC4629;" d="M332,226c0,6.599,2.401,13.2,7.2,19.499c5.4,7.202,13.5,14.101,24,19.801
	c21,12.299,51.901,20.7,88.801,20.7l45,0.3h15v52.798l-6.599,4.501c-7.202,4.799-15,9.3-23.401,13.5
	C418.7,389.201,324.101,406,256,406c-97.2,0-182.5-38.401-225.399-94.801C11.1,286,0,256.899,0,226l24-12.001L30,211L3.9,196
	C24.3,111.099,130,46,256,46c65.4,0,186.099,26.4,248.5,62.1l7.5,4.199V166h-60C381.2,166,332,197.5,332,226z"/>
<path style="fill:#FF2615;" d="M332,226c0,6.599,2.401,13.2,7.2,19.499c5.4,7.202,13.5,14.101,24,19.801
	c21,12.299,51.901,20.7,88.801,20.7l45,0.3h15v52.798l-6.599,4.501c-7.202,4.799-15,9.3-23.401,13.5
	C418.7,389.201,324.101,406,256,406V46c65.4,0,186.099,26.4,248.5,62.1l7.5,4.199V166h-60C381.2,166,332,197.5,332,226z"/>
<g>
	<path style="fill:#EFE6DE;" d="M151,211c0-8.291-6.709-15-15-15H3.838C1.5,205.78,0,215.759,0,226h136
		C144.291,226,151,219.291,151,211z"/>
	<path style="fill:#EFE6DE;" d="M256,183.399C242.5,172.599,221.201,166,196,166c-42.9,0-75,19.499-75,45c0,25.499,32.1,45,75,45
		c25.201,0,46.5-6.601,60-17.401c9.3-7.5,15-17.1,15-27.599C271,200.499,265.3,190.899,256,183.399z"/>
</g>
<path style="fill:#DFCCBF;" d="M271,211c0,10.499-5.7,20.099-15,27.599v-55.201C265.3,190.899,271,200.499,271,211z"/>
<g>
</g>
<g>
</g>
<g>
</g>
<g>
</g>
<g>
</g>
<g>
</g>
<g>
</g>
<g>
</g>
<g>
</g>
<g>
</g>
<g>
</g>
<g>
</g>
<g>
</g>
<g>
</g>
<g>
</g>
</svg>
