<?xml version="1.0" encoding="iso-8859-1"?>
<!-- Generator: Adobe Illustrator 19.0.0, SVG Export Plug-In . SVG Version: 6.00 Build 0)  -->
<svg version="1.1" id="Capa_1" xmlns="http://www.w3.org/2000/svg" xmlns:xlink="http://www.w3.org/1999/xlink" x="0px" y="0px"
	 viewBox="0 0 512 512" style="enable-background:new 0 0 512 512;" xml:space="preserve">
<path style="fill:#994C0F;" d="M512,286.005v90c0,57.9-48.1,105-106,105H136c-74.399,0-136-60.601-136-135v-120
	c0-8.401,6.599-15,15-15l482,60C505.401,271.005,512,277.604,512,286.005z"/>
<path style="fill:#713708;" d="M512,286.005v90c0,57.9-48.1,105-106,105H256v-240l241,30C505.401,271.005,512,277.604,512,286.005z"
	/>
<path style="fill:#BF6015;" d="M511.7,276.105c-5.099-53.399-53.8-95.099-110.2-95.099h-30.9c-6.899,0-12.9-4.501-14.399-11.4
	c-13.2-55.8-51-99.901-100.201-122.1c-30-13.799-63.6-19.499-98.401-15c-41.398,5.099-78.6,25.501-106.199,55.201
	c-27.599,30-46.899,69.3-50.799,112.8c-0.3,5.4-0.601,11.1-0.601,16.5v60.3c0,81.899,58.9,143.699,136,143.699h240
	c73.2,0,134.801-59.7,136-132.599C512,284.205,512,280.305,511.7,276.105z"/>
<path style="fill:#994C10;" d="M512,288.406c-1.199,72.9-62.8,132.599-136,132.599H256v-373.5
	c49.2,22.2,87.001,66.301,100.201,122.1c1.5,6.899,7.5,11.4,14.399,11.4h30.899c56.4,0,105.101,41.7,110.2,95.099
	C512,280.305,512,284.205,512,288.406z"/>
<path style="fill:#994C0F;" d="M450.7,281.504c-2.1-22.798-23.699-40.499-49.2-40.499h-30.9c-34.801,0-64.801-23.699-72.9-57.599
	c-6.301-27.001-21.301-50.101-41.7-66.301c-24.3-19.501-56.4-29.399-90.901-25.199C110.2,99.106,66.7,146.805,61.601,205.605
	c-0.3,3.9-0.601,7.5-0.601,11.4v60.3c0,48.3,31.5,83.699,75,83.699h240c40.8,0,74.399-33.3,75-73.801
	C451,285.404,451,283.304,450.7,281.504z"/>
<path style="fill:#713708;" d="M451,287.204c-0.601,40.501-34.2,73.801-75,73.801H256v-243.9c20.4,16.199,35.4,39.3,41.7,66.301
	c8.099,33.9,38.099,57.599,72.9,57.599h30.899c25.501,0,47.1,17.701,49.2,40.499C451,283.304,451,285.404,451,287.204z"/>
<path style="fill:#BF6015;" d="M401.499,271.005H370.6c-48.9,0-90.901-33.3-102.001-80.7c-2.399-10.499-6.899-20.4-12.599-29.099
	c-16.199-24.6-43.801-40.201-75-40.201c-3.9,0-8.101,0.3-12.299,0.901c-40.801,5.099-73.5,41.398-77.401,86.398
	c-0.3,2.701-0.3,5.7-0.3,8.701v60.3c0,31.5,18.6,53.699,45,53.699h240c24.3,0,44.7-20.099,45-44.399
	C420.399,277.904,412.301,271.005,401.499,271.005z"/>
<path style="fill:#994C10;" d="M421,286.606c-0.3,24.3-20.7,44.399-45,44.399H256V161.206c5.7,8.699,10.201,18.6,12.599,29.099
	c11.1,47.401,53.101,80.7,102.001,80.7h30.899C412.301,271.005,420.399,277.904,421,286.606z"/>
<g>
	<path style="fill:#994C0F;" d="M136,361.005c-8.291,0-15-6.709-15-15V116.361c0-8.291,6.709-15,15-15s15,6.709,15,15v229.644
		C151,354.296,144.291,361.005,136,361.005z"/>
	<path style="fill:#994C0F;" d="M196,361.005c-8.291,0-15-6.709-15-15V107.06c0-8.291,6.709-15,15-15s15,6.709,15,15v238.945
		C211,354.296,204.291,361.005,196,361.005z"/>
	<path style="fill:#994C0F;" d="M271,137.204v208.801c0,8.401-6.599,15-15,15s-15-6.599-15-15V137.204c0-8.099,6.599-15,15-15
		S271,129.106,271,137.204z"/>
</g>
<g>
	<path style="fill:#713708;" d="M316,361.005c-8.291,0-15-6.709-15-15V237.651c0-8.291,6.709-15,15-15s15,6.709,15,15v108.354
		C331,354.296,324.291,361.005,316,361.005z"/>
	<path style="fill:#713708;" d="M376,361.005c-8.291,0-15-6.709-15-15v-90c0-8.291,6.709-15,15-15s15,6.709,15,15v90
		C391,354.296,384.291,361.005,376,361.005z"/>
	<path style="fill:#713708;" d="M271,137.204v208.801c0,8.401-6.599,15-15,15V122.204C264.401,122.204,271,129.106,271,137.204z"/>
</g>
<g>
</g>
<g>
</g>
<g>
</g>
<g>
</g>
<g>
</g>
<g>
</g>
<g>
</g>
<g>
</g>
<g>
</g>
<g>
</g>
<g>
</g>
<g>
</g>
<g>
</g>
<g>
</g>
<g>
</g>
</svg>
