<?xml version="1.0" encoding="iso-8859-1"?>
<!-- Generator: Adobe Illustrator 19.0.0, SVG Export Plug-In . SVG Version: 6.00 Build 0)  -->
<svg version="1.1" id="Capa_1" xmlns="http://www.w3.org/2000/svg" xmlns:xlink="http://www.w3.org/1999/xlink" x="0px" y="0px"
	 viewBox="0 0 512 512" style="enable-background:new 0 0 512 512;" xml:space="preserve">
<path style="fill:#17ACE8;" d="M481,181c0,106.5-71.4,178.599-75,181c-3.6-2.401-75-74.5-75-181c0-18.6,2.701-35.7,6.301-51.899
	H474.7C478.299,145.3,481,162.4,481,181z"/>
<path style="fill:#1689FC;" d="M481,181c0,106.5-71.4,178.599-75,181V129.101h68.699C478.299,145.3,481,162.4,481,181z"/>
<path style="fill:#EFE6DE;" d="M474.699,129.101C455.2,142.899,431.499,151,406,151s-49.2-8.101-68.699-21.899
	c2.399-11.1,5.4-21.601,9-31.201C356.8,68.801,371.202,44.801,382.9,28.3C394.9,11.8,404.801,1.199,406,0
	c2.701,2.1,38.699,39.401,59.7,97.899C469.3,107.5,472.301,118.001,474.699,129.101z"/>
<path style="fill:#DFCCBF;" d="M474.699,129.101C455.2,142.899,431.499,151,406,151V0c2.701,2.1,38.699,39.401,59.7,97.899
	C469.3,107.5,472.301,118.001,474.699,129.101z"/>
<path style="fill:#1689FC;" d="M481,437v75l-75-60l-75,60v-75c0-41.4,33.6-75,75-75c20.7,0,39.6,8.401,53.101,21.899
	C472.599,397.4,481,416.3,481,437z"/>
<rect x="391" y="61" style="fill:#57555C;" width="30" height="30"/>
<path style="fill:#136EF1;" d="M481,437v75l-75-60v-90c20.7,0,39.6,8.401,53.101,21.899C472.599,397.4,481,416.3,481,437z"/>
<rect x="406" y="61" style="fill:#3C3A41;" width="15" height="30"/>
<path style="fill:#17ACE8;" d="M331,181c0,106.5-71.4,178.599-75,181c-3.6-2.401-75-74.5-75-181c0-18.6,2.701-35.7,6.301-51.899
	H324.7C328.299,145.3,331,162.4,331,181z"/>
<path style="fill:#1689FC;" d="M331,181c0,106.5-71.4,178.599-75,181V129.101h68.699C328.299,145.3,331,162.4,331,181z"/>
<path style="fill:#EFE6DE;" d="M324.699,129.101C305.2,142.899,281.499,151,256,151s-49.2-8.101-68.699-21.899
	c2.399-11.1,5.4-21.601,9-31.201C206.8,68.801,221.202,44.801,232.9,28.3C244.9,11.8,254.801,1.199,256,0
	c2.701,2.1,38.699,39.401,59.7,97.899C319.3,107.5,322.301,118.001,324.699,129.101z"/>
<path style="fill:#DFCCBF;" d="M324.699,129.101C305.2,142.899,281.499,151,256,151V0c2.701,2.1,38.699,39.401,59.7,97.899
	C319.3,107.5,322.301,118.001,324.699,129.101z"/>
<path style="fill:#1689FC;" d="M331,437v75l-75-60l-75,60v-75c0-41.4,33.6-75,75-75c20.7,0,39.6,8.401,53.101,21.899
	C322.599,397.4,331,416.3,331,437z"/>
<rect x="241" y="61" style="fill:#57555C;" width="30" height="30"/>
<path style="fill:#136EF1;" d="M331,437v75l-75-60v-90c20.7,0,39.6,8.401,53.101,21.899C322.599,397.4,331,416.3,331,437z"/>
<rect x="256" y="61" style="fill:#3C3A41;" width="15" height="30"/>
<path style="fill:#17ACE8;" d="M181,181c0,106.5-71.4,178.599-75,181c-3.6-2.401-75-74.5-75-181c0-18.6,2.701-35.7,6.301-51.899
	H174.7C178.299,145.3,181,162.4,181,181z"/>
<path style="fill:#1689FC;" d="M181,181c0,106.5-71.4,178.599-75,181V129.101h68.699C178.299,145.3,181,162.4,181,181z"/>
<path style="fill:#EFE6DE;" d="M174.699,129.101C155.2,142.899,131.499,151,106,151s-49.2-8.101-68.699-21.899
	c2.399-11.1,5.4-21.601,9-31.201c10.499-29.1,24.9-53.099,36.598-69.601C94.9,11.8,104.801,1.199,106,0
	c2.701,2.1,38.699,39.401,59.7,97.899C169.3,107.5,172.301,118.001,174.699,129.101z"/>
<path style="fill:#DFCCBF;" d="M174.699,129.101C155.2,142.899,131.499,151,106,151V0c2.701,2.1,38.699,39.401,59.7,97.899
	C169.3,107.5,172.301,118.001,174.699,129.101z"/>
<path style="fill:#1689FC;" d="M181,437v75l-75-60l-75,60v-75c0-41.4,33.6-75,75-75c20.7,0,39.6,8.401,53.101,21.899
	C172.599,397.4,181,416.3,181,437z"/>
<rect x="91" y="61" style="fill:#57555C;" width="30" height="30"/>
<path style="fill:#136EF1;" d="M181,437v75l-75-60v-90c20.7,0,39.6,8.401,53.101,21.899C172.599,397.4,181,416.3,181,437z"/>
<rect x="106" y="61" style="fill:#3C3A41;" width="15" height="30"/>
<g>
</g>
<g>
</g>
<g>
</g>
<g>
</g>
<g>
</g>
<g>
</g>
<g>
</g>
<g>
</g>
<g>
</g>
<g>
</g>
<g>
</g>
<g>
</g>
<g>
</g>
<g>
</g>
<g>
</g>
</svg>
