<?xml version="1.0" encoding="iso-8859-1"?>
<!-- Generator: Adobe Illustrator 19.0.0, SVG Export Plug-In . SVG Version: 6.00 Build 0)  -->
<svg version="1.1" id="Capa_1" xmlns="http://www.w3.org/2000/svg" xmlns:xlink="http://www.w3.org/1999/xlink" x="0px" y="0px"
	 viewBox="0 0 512 512" style="enable-background:new 0 0 512 512;" xml:space="preserve">
<polygon style="fill:#FD8822;" points="482,451 330,451 300,421 330,391 415.75,361 482,391 "/>
<rect x="300" y="181" style="fill:#E5741A;" width="182" height="210"/>
<path style="fill:#FD8822;" d="M437,61H285c-8.291,0-15,6.709-15,15l30,120c0,8.291,6.709,15,15,15h122c41.353,0,75-33.647,75-75
	S478.353,61,437,61z"/>
<path style="fill:#FEA832;" d="M285,61H75C33.6,61,0,94.6,0,136c0,23.699,11.4,45.899,30,60v255h300V196
	c18.6-14.101,30-36.301,30-60C360,94.6,326.4,61,285,61z"/>
<path style="fill:#FE9923;" d="M360,136c0,23.699-11.4,45.899-30,60v255H180V61h105C326.4,61,360,94.6,360,136z"/>
<path style="fill:#FEDBAB;" d="M285,91H75c-24.901,0-45,20.099-45,45c0,15.899,8.699,30.899,22.5,39l7.5,4.2V421h240V179.2l7.5-4.2
	c13.801-8.101,22.5-23.101,22.5-39C330,111.099,309.901,91,285,91z"/>
<path style="fill:#FEC478;" d="M330,136c0,15.899-8.699,30.899-22.5,39l-7.5,4.2V421H180V91h105C309.901,91,330,111.099,330,136z"/>
<rect x="120.008" y="183.564" transform="matrix(-0.7071 -0.7071 0.7071 -0.7071 70.6723 481.2504)" style="fill:#FEA832;" width="29.997" height="84.849"/>
<rect x="182.572" y="301.15" transform="matrix(-0.7071 0.7071 -0.7071 -0.7071 607.5386 380.3471)" style="fill:#FE9923;" width="84.849" height="29.698"/>
<polygon style="fill:#FEA832;" points="265.499,206.499 180,292 145.499,326.499 124.501,305.499 244.501,185.499 "/>
<polygon style="fill:#FE9923;" points="265.499,206.499 180,292 180,250 244.501,185.499 "/>
<g>
</g>
<g>
</g>
<g>
</g>
<g>
</g>
<g>
</g>
<g>
</g>
<g>
</g>
<g>
</g>
<g>
</g>
<g>
</g>
<g>
</g>
<g>
</g>
<g>
</g>
<g>
</g>
<g>
</g>
</svg>
