<?xml version="1.0" encoding="iso-8859-1"?>
<!-- Generator: Adobe Illustrator 19.0.0, SVG Export Plug-In . SVG Version: 6.00 Build 0)  -->
<svg version="1.1" id="Capa_1" xmlns="http://www.w3.org/2000/svg" xmlns:xlink="http://www.w3.org/1999/xlink" x="0px" y="0px"
	 viewBox="0 0 512 512" style="enable-background:new 0 0 512 512;" xml:space="preserve">
<path style="fill:#FEDB41;" d="M376,210v151H136V210h0.3c-3.001-72.001,17.401-140.4,54-178.801
	c19.501-20.399,42.599-30.6,65.7-30.6c23.101,0,46.199,10.201,65.7,30.601c36.599,38.401,57.001,106.8,54,178.801L376,210L376,210z"
	/>
<path style="fill:#FCBF29;" d="M376,210v151H256V0.599c23.101,0,46.199,10.201,65.7,30.601c36.599,38.401,57.001,106.8,54,178.801
	L376,210L376,210z"/>
<path style="fill:#FEA832;" d="M300.099,51.899C290.501,41.999,275.2,30,256,30s-34.501,11.999-44.099,21.899
	c-31.501,32.999-48.9,93.9-45.601,158.699v0.601l5.4,196.901h174V211.5C348.999,145.8,331.601,84.899,300.099,51.899z"/>
<path style="fill:#FE9923;" d="M345.7,211.5v196.6H256V30c19.2,0,34.501,11.999,44.099,21.899
	C331.601,84.899,348.999,145.8,345.7,211.5z"/>
<g>
	<path style="fill:#FEDB41;" d="M349.3,75c0,8.399-6.599,15-15,15H177.7c-8.401,0-15-6.601-15-15c0-8.401,6.599-15,15-15h156.6
		C342.7,60,349.3,66.599,349.3,75z"/>
	<path style="fill:#FEDB41;" d="M370,135c0,8.399-6.599,15-15,15H157c-8.401,0-15-6.601-15-15c0-8.401,6.599-15,15-15h198
		C363.401,120,370,126.599,370,135z"/>
	<path style="fill:#FEDB41;" d="M376,195c0,8.399-6.599,15-15,15H151c-8.401,0-15-6.601-15-15c0-8.401,6.599-15,15-15h210
		C369.401,180,376,186.599,376,195z"/>
	<path style="fill:#FEDB41;" d="M271,15v331c0,8.399-6.599,15-15,15c-8.401,0-15-6.601-15-15V15c0-8.401,6.599-15,15-15
		C264.401,0,271,6.599,271,15z"/>
</g>
<g>
	<path style="fill:#FCBF29;" d="M334.3,90H256V60h78.3c8.401,0,15,6.599,15,15C349.3,83.399,342.7,90,334.3,90z"/>
	<path style="fill:#FCBF29;" d="M355,150h-99v-30h99c8.401,0,15,6.599,15,15C370,143.399,363.401,150,355,150z"/>
	<path style="fill:#FCBF29;" d="M376,195c0,8.399-6.599,15-15,15H256v-30h105C369.401,180,376,186.599,376,195z"/>
	<path style="fill:#FCBF29;" d="M271,15v331c0,8.399-6.599,15-15,15V0C264.401,0,271,6.599,271,15z"/>
</g>
<path style="fill:#6ECD24;" d="M436,180c-81,0-150.601,49.499-180,120c-29.399-70.501-99-120-180-120H9.699l43.2,43.2
	C77.5,247.8,91,280.199,91,315c0,74.099,49.799,140.9,120,160.699V512h90v-36.301C371.201,455.9,421,389.099,421,315
	c0-34.801,13.5-67.2,38.101-91.8l43.2-43.2H436z"/>
<path style="fill:#66BD21;" d="M502.301,180l-43.2,43.2C434.5,247.8,421,280.199,421,315c0,74.099-49.799,140.9-120,160.699V512h-45
	V300c29.399-70.501,99-120,180-120H502.301z"/>
<g>
</g>
<g>
</g>
<g>
</g>
<g>
</g>
<g>
</g>
<g>
</g>
<g>
</g>
<g>
</g>
<g>
</g>
<g>
</g>
<g>
</g>
<g>
</g>
<g>
</g>
<g>
</g>
<g>
</g>
</svg>
