<?xml version="1.0" encoding="iso-8859-1"?>
<!-- Generator: Adobe Illustrator 19.0.0, SVG Export Plug-In . SVG Version: 6.00 Build 0)  -->
<svg version="1.1" id="Capa_1" xmlns="http://www.w3.org/2000/svg" xmlns:xlink="http://www.w3.org/1999/xlink" x="0px" y="0px"
	 viewBox="0 0 512 512" style="enable-background:new 0 0 512 512;" xml:space="preserve">
<path style="fill:#3C3A41;" d="M393.534,452c5.215,7.119,10.02,14.575,14.37,22.324C410.57,479.07,415.58,482,421,482
	c8.276,0,15-6.724,15-15s-6.724-15-15-15H393.534z M421,512c-16.26,0-31.289-8.804-39.243-22.983
	c-8.569-15.234-19.131-29.18-31.362-41.411L324.789,422H421c24.814,0,45,20.186,45,45S445.814,512,421,512z"/>
<polygon style="fill:#57555C;" points="376,392 376,452 106,452 106,392 151,361 346,361 "/>
<polygon style="fill:#3C3A41;" points="376,392 376,452 241,452 241,361 346,361 "/>
<path style="fill:#6ECD24;" d="M352.301,44.099C325.901,15.3,290.2,0,249.101,0c-2.701,0-5.4,0-8.101,0.599
	c-78.6,3.9-135,69.001-135,157.5V170.4c-9.6-1.8-19.501-0.901-29.099,2.999C58.001,181.5,46,199.2,46,219.899
	c0,25.201,6,51.7,17.401,74.2L106,392h270l15.601-219.5C396.099,123.3,381.7,76.5,352.301,44.099z"/>
<path style="fill:#66BD21;" d="M391.601,172.5L376,392H241V0.599C243.701,0,246.4,0,249.101,0c41.1,0,76.8,15.3,103.2,44.099
	C381.7,76.5,396.099,123.3,391.601,172.5z"/>
<g>
</g>
<g>
</g>
<g>
</g>
<g>
</g>
<g>
</g>
<g>
</g>
<g>
</g>
<g>
</g>
<g>
</g>
<g>
</g>
<g>
</g>
<g>
</g>
<g>
</g>
<g>
</g>
<g>
</g>
</svg>
