<?xml version="1.0" encoding="iso-8859-1"?>
<!-- Generator: Adobe Illustrator 19.0.0, SVG Export Plug-In . SVG Version: 6.00 Build 0)  -->
<svg version="1.1" id="Capa_1" xmlns="http://www.w3.org/2000/svg" xmlns:xlink="http://www.w3.org/1999/xlink" x="0px" y="0px"
	 viewBox="0 0 512.001 512.001" style="enable-background:new 0 0 512.001 512.001;" xml:space="preserve">
<path style="fill:#DFCCBF;" d="M236.229,296.985l-63.64,63.64c-5.939,5.939-15.273,5.94-21.213,0s-5.939-15.274,0-21.213
	l63.64-63.64c5.94-5.94,15.273-5.94,21.213,0C242.17,281.712,242.17,291.046,236.229,296.985z"/>
<path style="fill:#57555C;" d="M161.983,413.658l-85.138,85.138c-17.606,17.606-46.032,17.607-63.64,0
	c-17.607-17.607-17.606-46.034,0-63.64l85.138-85.138L161.983,413.658z"/>
<path style="fill:#C8AD92;" d="M151.377,360.624l84.853-84.853c5.94,5.94,5.94,15.273,0,21.213l-63.64,63.64
	C166.651,366.563,157.317,366.565,151.377,360.624z"/>
<path style="fill:#3C3A41;" d="M161.983,413.658l-85.138,85.138c-17.606,17.606-46.032,17.607-63.64,0l116.957-116.957
	L161.983,413.658z"/>
<path style="fill:#EFE6DE;" d="M512.001,148.492L363.509,296.985c-41.154,41.154-107.126,40.941-148.492,0l-4.031-4.031
	c-37.971-42.215-32.032-108.399,8.273-148.705L363.509,0c23.334,23.334,23.335,61.518,0,84.853L257.443,190.919
	c-17.606,17.606-17.607,46.032,0,63.64s46.034,17.606,63.64,0l106.066-106.066C450.483,125.157,488.667,125.158,512.001,148.492z"/>
<path style="fill:#DFCCBF;" d="M512.001,148.492L363.509,296.985c-41.154,41.154-107.126,40.941-148.492,0l42.426-42.426
	c17.607,17.607,46.034,17.606,63.64,0l106.066-106.066C450.483,125.157,488.667,125.158,512.001,148.492z"/>
<path style="fill:#BF6015;" d="M172.59,445.477l-10.607,10.607L55.917,350.018l10.607-10.607c29.274-29.274,76.792-29.274,106.066,0
	c14.637,14.637,22.063,33.941,22.063,53.033C194.651,411.535,187.227,430.84,172.59,445.477z"/>
<path style="fill:#994C10;" d="M194.652,392.444c-0.001,19.091-7.425,38.396-22.063,53.033l-10.607,10.607l-53.033-53.033
	l63.64-63.64C187.227,354.048,194.652,373.352,194.652,392.444z"/>
<g>
</g>
<g>
</g>
<g>
</g>
<g>
</g>
<g>
</g>
<g>
</g>
<g>
</g>
<g>
</g>
<g>
</g>
<g>
</g>
<g>
</g>
<g>
</g>
<g>
</g>
<g>
</g>
<g>
</g>
</svg>
