<?xml version="1.0" encoding="iso-8859-1"?>
<!-- Generator: Adobe Illustrator 19.0.0, SVG Export Plug-In . SVG Version: 6.00 Build 0)  -->
<svg version="1.1" id="Capa_1" xmlns="http://www.w3.org/2000/svg" xmlns:xlink="http://www.w3.org/1999/xlink" x="0px" y="0px"
	 viewBox="0 0 512 512" style="enable-background:new 0 0 512 512;" xml:space="preserve">
<polygon style="fill:#17ACE8;" points="482,301 482,512 30,512 30,301 68.401,271 452.901,271 "/>
<polygon style="fill:#1689FC;" points="482,301 482,512 256,512 256,271 452.901,271 "/>
<g>
	<path style="fill:#57555C;" d="M316,60h30c24.814,0,45,20.186,45,45v75h30v-75c0-41.353-33.647-75-75-75h-30
		c-8.291,0-15,6.709-15,15S307.709,60,316,60z"/>
	<path style="fill:#57555C;" d="M121,180v-75c0-24.814,20.186-45,45-45h30c8.291,0,15-6.709,15-15s-6.709-15-15-15h-30
		c-41.353,0-75,33.647-75,75v75H121z"/>
	<path style="fill:#57555C;" d="M181,271v90h150v-90H181z"/>
</g>
<rect x="256" y="271" style="fill:#3C3A41;" width="75" height="90"/>
<path style="fill:#EFE6DE;" d="M482,165v136H30V165c0-24.901,20.099-45,45-45h362C461.901,120,482,140.099,482,165z"/>
<path style="fill:#DFCCBF;" d="M482,165v136H256V120h181C461.901,120,482,140.099,482,165z"/>
<path style="fill:#17ACE8;" d="M181,0v90h150V0H181z"/>
<rect x="256" style="fill:#1689FC;" width="75" height="90"/>
<rect y="211" style="fill:#17ACE8;" width="512" height="30"/>
<rect x="256" y="211" style="fill:#1689FC;" width="256" height="30"/>
<g>
</g>
<g>
</g>
<g>
</g>
<g>
</g>
<g>
</g>
<g>
</g>
<g>
</g>
<g>
</g>
<g>
</g>
<g>
</g>
<g>
</g>
<g>
</g>
<g>
</g>
<g>
</g>
<g>
</g>
</svg>
