<?xml version="1.0" encoding="iso-8859-1"?>
<!-- Generator: Adobe Illustrator 19.0.0, SVG Export Plug-In . SVG Version: 6.00 Build 0)  -->
<svg version="1.1" id="Capa_1" xmlns="http://www.w3.org/2000/svg" xmlns:xlink="http://www.w3.org/1999/xlink" x="0px" y="0px"
	 viewBox="0 0 512 512" style="enable-background:new 0 0 512 512;" xml:space="preserve">
<path style="fill:#BF0000;" d="M361.472,236.144c-1.582,10.08-6.14,19.497-13.358,26.955L302.213,300h60
	c76.26,0,138.593-57.213,148.074-130.906L361.472,236.144z"/>
<path style="fill:#FF2615;" d="M493.377,78.409c-14.462-26.028-36.238-47.468-62.814-61.196
	c-16.646-8.599-35.079-13.762-54.606-15.569c-1.251-0.115-2.391-0.54-3.651-0.626l-0.15,1.011l-28.103,189.058
	c4.054,3.301,7.575,7.213,10.402,11.603c5.881,9.135,9.011,20.735,7.017,33.453c9.915,2.327,20.125,3.856,30.742,3.856
	c51.127,0,95.165-28.898,118.074-70.906C513.889,141.092,512.01,111.938,493.377,78.409z"/>
<path style="fill:#BF0000;" d="M372.306,1.018C368.908,0.787,365.67,0,362.213,0h-98.22h-21.78l0.716,15.883l6.942,153.995
	l0.443,9.822c3.59,0.513,66.302,0.3,63.3,0.3c11.556,0,22.07,4.27,30.439,11.087c44.85-11.949,78.16-52.529,78.16-101.087
	C422.213,52.37,402.139,19.559,372.306,1.018z"/>
<path style="fill:#FC4629;" d="M242.213,0h-150v15c0,87.599,68.699,159.6,155.099,164.399c0.601,0.3,1.5,0.3,2.401,0.3
	c0.3,0,0.3,0,0.601,0c45.899-4.2,81.899-43.5,81.899-89.7C332.213,40.499,291.714,0,242.213,0z"/>
<rect x="182.21" y="60" style="fill:#3C3A41;" width="30" height="30"/>
<path style="fill:#FF2615;" d="M271.472,387.144c-1.582,10.08-6.14,19.497-13.358,26.955L212.213,451h60
	c76.26,0,138.593-58.213,148.074-131.906L271.472,387.144z"/>
<path style="fill:#FC4629;" d="M403.377,228.409c-14.462-26.028-36.238-47.468-62.814-61.196
	c-16.646-8.599-35.079-13.762-54.606-15.569c-1.251-0.115-2.391-0.54-3.651-0.626l-0.15,1.011l-28.103,189.058
	c4.054,3.301,7.575,7.213,10.402,11.603c5.881,9.135,9.011,21.735,7.017,34.453c9.915,2.327,20.125,3.856,30.742,3.856
	c51.127,0,95.165-29.898,118.074-71.906C423.889,291.092,422.01,261.938,403.377,228.409z"/>
<path style="fill:#FF2615;" d="M282.306,151.018c-3.398-0.231-6.636-1.018-10.093-1.018h-98.22h-21.78l0.716,15.883l6.942,153.995
	l0.443,9.822c3.59,0.513,66.302,0.3,63.3,0.3c11.556,0,22.07,4.27,30.439,11.087c44.85-11.949,78.16-52.529,78.16-101.087
	C332.213,202.37,312.139,169.559,282.306,151.018z"/>
<path style="fill:#FC4629;" d="M152.213,150h-152v15c0,87.599,70.699,159.6,157.099,164.399c0.601,0.3,1.5,0.3,2.401,0.3
	c0.3,0,0.3,0,0.601,0c45.899-4.2,81.899-43.5,81.899-89.7C242.213,190.499,201.714,150,152.213,150z"/>
<path style="fill:#BF0000;" d="M152.213,391h-30c0,33.091,26.909,60,60,60c-33.091,0-60,27.909-60,61h30c33.091,0,60-27.909,60-61
	S185.304,391,152.213,391z"/>
<rect x="92.21" y="210" style="fill:#57555C;" width="30" height="30"/>
<g>
</g>
<g>
</g>
<g>
</g>
<g>
</g>
<g>
</g>
<g>
</g>
<g>
</g>
<g>
</g>
<g>
</g>
<g>
</g>
<g>
</g>
<g>
</g>
<g>
</g>
<g>
</g>
<g>
</g>
</svg>
