<?xml version="1.0" encoding="iso-8859-1"?>
<!-- Generator: Adobe Illustrator 19.0.0, SVG Export Plug-In . SVG Version: 6.00 Build 0)  -->
<svg version="1.1" id="Capa_1" xmlns="http://www.w3.org/2000/svg" xmlns:xlink="http://www.w3.org/1999/xlink" x="0px" y="0px"
	 viewBox="0 0 512.001 512.001" style="enable-background:new 0 0 512.001 512.001;" xml:space="preserve">
<path style="fill:#EFE6DE;" d="M182.964,442.74c-2.121-12.727-8.061-24.183-16.97-33.093l74.88-74.552l-63.64-63.64l-74.88,74.552
	c-8.909-8.909-20.365-14.85-33.093-16.97c-18.88-2.758-38.184,3.394-51.76,16.97c-23.334,23.334-23.334,61.519,0,84.853
	c12.727,12.727,29.487,18.455,46.245,17.395c-1.06,16.758,4.668,33.517,17.395,46.245c23.334,23.334,61.519,23.334,84.853,0
	C179.571,480.924,185.721,461.62,182.964,442.74z"/>
<path style="fill:#DFCCBF;" d="M165.993,494.5c-23.334,23.334-61.519,23.334-84.853,0c-12.727-12.727-18.455-29.487-17.395-46.245
	l145.308-144.98l31.82,31.82l-74.88,74.552c8.909,8.909,14.849,20.365,16.97,33.093C185.721,461.62,179.571,480.924,165.993,494.5z"
	/>
<path style="fill:#BF6015;" d="M511.13,148.419c-3.818-38.184-20.789-72.972-47.517-99.701c-8.273-8.273-17.606-15.91-27.577-22.486
	C380.667-10.043,307.059-8.557,252.54,29.839c-48.153,34.152-74.459,89.307-70.003,147.642c1.908,27.366-9.334,55.58-31.395,77.641
	l-16.335,16.335l106.066,106.066l17.183-17.183c20.365-20.365,50.275-31.183,84.005-30.122
	c46.032,1.485,89.094-15.698,121.551-48.154C498.826,246.849,516.22,198.059,511.13,148.419z"/>
<g>
	<polygon style="fill:#713708;" points="336.125,91.351 325.518,80.744 346.524,59.324 368.153,80.537 346.94,101.751 	"/>
	<polygon style="fill:#713708;" points="272.485,112.564 261.88,101.958 282.885,80.537 304.513,101.751 283.299,122.964 	"/>
	<polygon style="fill:#713708;" points="314.912,154.991 304.305,144.384 325.312,122.964 346.94,144.177 325.726,165.39 	"/>
</g>
<path style="fill:#994C10;" d="M463.612,282.063c-32.457,32.457-75.519,49.639-121.551,48.154
	c-33.73-1.06-63.64,9.757-84.005,30.122l-17.183,17.183l-53.033-53.033L463.612,48.718c26.729,26.729,43.699,61.518,47.517,99.701
	C516.22,198.059,498.826,246.849,463.612,282.063z"/>
<g>
</g>
<g>
</g>
<g>
</g>
<g>
</g>
<g>
</g>
<g>
</g>
<g>
</g>
<g>
</g>
<g>
</g>
<g>
</g>
<g>
</g>
<g>
</g>
<g>
</g>
<g>
</g>
<g>
</g>
</svg>
