<?xml version="1.0" encoding="iso-8859-1"?>
<!-- Generator: Adobe Illustrator 19.0.0, SVG Export Plug-In . SVG Version: 6.00 Build 0)  -->
<svg version="1.1" id="Capa_1" xmlns="http://www.w3.org/2000/svg" xmlns:xlink="http://www.w3.org/1999/xlink" x="0px" y="0px"
	 viewBox="0 0 512 512" style="enable-background:new 0 0 512 512;" xml:space="preserve">
<polygon style="fill:#EFE6DE;" points="421,121 391,151 121,151 91,121 143.5,15 368.5,15 "/>
<polygon style="fill:#DFCCBF;" points="391,151 256,151 256,15 368.5,15 421,121 "/>
<polygon style="fill:#EFE6DE;" points="421,452 391,512 121,512 91,452 136,422 377.199,422 "/>
<polygon style="fill:#DFCCBF;" points="377.199,422 421,452 391,512 256,512 256,422 "/>
<polygon style="fill:#17ACE8;" points="421,121 421,211 391,241 121,241 91,211 91,121 "/>
<polygon style="fill:#1689FC;" points="421,121 421,211 391,241 256,241 256,121 "/>
<polygon style="fill:#17ACE8;" points="421,361 421,452 91,452 91,361 121,331 391,331 "/>
<polygon style="fill:#1689FC;" points="391,331 421,361 421,452 256,452 256,331 "/>
<path style="fill:#FEDB41;" d="M329.5,211c-19.501-19.2-46.5-28.801-73.5-28.801s-54,9.6-73.5,28.801H91v150h91.5
	c19.801,19.2,45.901,30,73.5,30s53.699-10.8,73.5-30H421V211H329.5z"/>
<path style="fill:#FCBF29;" d="M329.5,211H421v150h-91.5c-19.801,19.2-45.901,30-73.5,30V182.199
	C283.001,182.199,310,191.8,329.5,211z"/>
<path style="fill:#17ACE8;" d="M256,241c-24.901,0-45,20.099-45,45s20.099,45,45,45s45-20.099,45-45S280.901,241,256,241z"/>
<path style="fill:#1689FC;" d="M301,286c0,24.901-20.099,45-45,45v-90C280.901,241,301,261.099,301,286z"/>
<rect x="121" style="fill:#57555C;" width="270" height="30"/>
<rect x="256" style="fill:#3C3A41;" width="135" height="30"/>
<g>
</g>
<g>
</g>
<g>
</g>
<g>
</g>
<g>
</g>
<g>
</g>
<g>
</g>
<g>
</g>
<g>
</g>
<g>
</g>
<g>
</g>
<g>
</g>
<g>
</g>
<g>
</g>
<g>
</g>
</svg>
