<?xml version="1.0" encoding="iso-8859-1"?>
<!-- Generator: Adobe Illustrator 19.0.0, SVG Export Plug-In . SVG Version: 6.00 Build 0)  -->
<svg version="1.1" id="Capa_1" xmlns="http://www.w3.org/2000/svg" xmlns:xlink="http://www.w3.org/1999/xlink" x="0px" y="0px"
	 viewBox="0 0 512 512" style="enable-background:new 0 0 512 512;" xml:space="preserve">
<path style="fill:#EFE6DE;" d="M361,196.126v89.5c0,40.8-23.699,77.699-60,94.799v131.201h-90v-131.2c-36.301-17.1-60-54-60-94.799
	v-89.5c0-8.401,6.599-15,15-15h45v104.5c0,24.899,20.099,45,45,45s45-20.101,45-45v-104.5h45
	C354.401,181.126,361,187.725,361,196.126z"/>
<path style="fill:#DFCCBF;" d="M361,196.126v89.5c0,40.8-23.699,77.699-60,94.799v131.201h-45v-181c24.901,0,45-20.101,45-45v-104.5
	h45C354.401,181.126,361,187.725,361,196.126z"/>
<path style="fill:#FC4629;" d="M512,74.626c0,20.099-7.8,39-21.899,53.099C428,189.825,344.2,224.025,256,224.025
	s-172-34.2-234.101-96.301C7.8,113.626,0,94.726,0,74.626c0-20.101,7.8-39,21.899-53.101c28.5-28.2,78.701-28.2,107.201,0
	c14.099,14.399,30.599,24.901,47.699,33.3L175,89.626l29.7-23.701c12.001,3.301,24.001,5.7,36.301,6.601l15,32.1l15-32.1
	c12.299-0.901,24.3-3.3,36.301-6.601l19.499,22.8l8.401-33.9c17.1-8.399,33.6-18.9,47.699-33.3c28.5-28.2,78.701-28.2,107.201,0
	C504.2,35.626,512,54.524,512,74.626z"/>
<g>
	<path style="fill:#FF2615;" d="M512,74.626c0,20.099-7.8,39-21.899,53.099C428,189.825,344.2,224.025,256,224.025v-119.4l15-32.1
		c12.299-0.901,24.3-3.3,36.301-6.601l19.499,22.8l8.401-33.9c17.1-8.399,33.6-18.9,47.699-33.3c28.5-28.2,78.701-28.2,107.201,0
		C504.2,35.626,512,54.524,512,74.626z"/>
	<path style="fill:#FF2615;" d="M271,72.526v77.1h-30v-77.1c4.799,0.3,9.901,0.601,15,0.601S266.201,72.826,271,72.526z"/>
</g>
<path style="fill:#BF0000;" d="M360.224,129.88l-25.007-75.015c-9.089,4.477-18.38,8.088-27.966,10.937l24.525,73.57L360.224,129.88
	z"/>
<path style="fill:#FF2615;" d="M180.224,139.372l24.523-73.57c-9.586-2.849-18.876-6.46-27.966-10.939l-25.005,75.016
	L180.224,139.372z"/>
<path style="fill:#BF0000;" d="M271,72.526v77.1h-15v-76.5C261.099,73.127,266.201,72.826,271,72.526z"/>
<g>
</g>
<g>
</g>
<g>
</g>
<g>
</g>
<g>
</g>
<g>
</g>
<g>
</g>
<g>
</g>
<g>
</g>
<g>
</g>
<g>
</g>
<g>
</g>
<g>
</g>
<g>
</g>
<g>
</g>
</svg>
