<?xml version="1.0" encoding="iso-8859-1"?>
<!-- Generator: Adobe Illustrator 19.0.0, SVG Export Plug-In . SVG Version: 6.00 Build 0)  -->
<svg version="1.1" id="Capa_1" xmlns="http://www.w3.org/2000/svg" xmlns:xlink="http://www.w3.org/1999/xlink" x="0px" y="0px"
	 viewBox="0 0 512 512" style="enable-background:new 0 0 512 512;" xml:space="preserve">
<path style="fill:#EFE6DE;" d="M0,30v91h91V30H0z"/>
<rect y="76" style="fill:#DFCCBF;" width="91" height="45"/>
<path style="fill:#EFE6DE;" d="M421,30v91h91V30H421z"/>
<rect x="421" y="76" style="fill:#DFCCBF;" width="91" height="45"/>
<path style="fill:#EFE6DE;" d="M0,151v90h91v-90H0z"/>
<rect y="196" style="fill:#DFCCBF;" width="91" height="45"/>
<path style="fill:#EFE6DE;" d="M421,151v90h91v-90H421z"/>
<rect x="421" y="196" style="fill:#DFCCBF;" width="91" height="45"/>
<path style="fill:#EFE6DE;" d="M0,271v90h91v-90H0z"/>
<rect y="316" style="fill:#DFCCBF;" width="91" height="45"/>
<path style="fill:#EFE6DE;" d="M421,271v90h91v-90H421z"/>
<rect x="421" y="316" style="fill:#DFCCBF;" width="91" height="45"/>
<path style="fill:#EFE6DE;" d="M0,391v91h91v-91H0z"/>
<rect y="436" style="fill:#DFCCBF;" width="91" height="46"/>
<path style="fill:#EFE6DE;" d="M421,391v91h91v-91H421z"/>
<rect x="421" y="436" style="fill:#DFCCBF;" width="91" height="46"/>
<path style="fill:#BF6015;" d="M451,45c0-24.901-20.099-45-45-45H106C81.099,0,61,20.099,61,45v61c0,11.4,4.501,21.899,11.4,30
	c-6.899,8.099-11.4,18.6-11.4,30v60c0,11.4,4.501,21.899,11.4,30c-6.899,8.099-11.4,18.6-11.4,30v60c0,11.4,4.501,21.899,11.4,30
	c-6.899,8.099-11.4,18.6-11.4,30v61c0,24.899,20.099,45,45,45h300c24.901,0,45-20.101,45-45v-61c0-11.4-4.501-21.901-11.4-30
	c6.899-8.101,11.4-18.6,11.4-30v-60c0-11.4-4.501-21.901-11.4-30c6.899-8.101,11.4-18.6,11.4-30v-60c0-11.4-4.501-21.901-11.4-30
	c6.899-8.101,11.4-18.6,11.4-30V45z"/>
<path style="fill:#994C10;" d="M451,106c0,11.4-4.501,21.899-11.4,30c6.899,8.099,11.4,18.6,11.4,30v60c0,11.4-4.501,21.899-11.4,30
	c6.899,8.099,11.4,18.6,11.4,30v60c0,11.4-4.501,21.899-11.4,30c6.899,8.099,11.4,18.6,11.4,30v61c0,24.899-20.099,45-45,45H256V0
	h150c24.901,0,45,20.099,45,45V106z"/>
<g>
	<rect x="151" y="121" style="fill:#994C0F;" width="210" height="30"/>
	<rect x="151" y="241" style="fill:#994C0F;" width="210" height="30"/>
	<rect x="151" y="361" style="fill:#994C0F;" width="210" height="30"/>
</g>
<g>
	<rect x="256" y="121" style="fill:#713708;" width="105" height="30"/>
	<rect x="256" y="241" style="fill:#713708;" width="105" height="30"/>
	<rect x="256" y="361" style="fill:#713708;" width="105" height="30"/>
</g>
<g>
</g>
<g>
</g>
<g>
</g>
<g>
</g>
<g>
</g>
<g>
</g>
<g>
</g>
<g>
</g>
<g>
</g>
<g>
</g>
<g>
</g>
<g>
</g>
<g>
</g>
<g>
</g>
<g>
</g>
</svg>
