<?xml version="1.0" encoding="iso-8859-1"?>
<!-- Generator: Adobe Illustrator 19.0.0, SVG Export Plug-In . SVG Version: 6.00 Build 0)  -->
<svg version="1.1" id="Capa_1" xmlns="http://www.w3.org/2000/svg" xmlns:xlink="http://www.w3.org/1999/xlink" x="0px" y="0px"
	 viewBox="0 0 512 512" style="enable-background:new 0 0 512 512;" xml:space="preserve">
<path style="fill:#EFE6DE;" d="M309.101,490.399C296.201,504.5,277.899,512,256,512s-40.201-7.5-53.101-21.601
	c-17.1-18.9-24-47.999-20.4-84.6L191.2,317.1c0.899-8.401,8.099-14.101,16.5-13.5h96.6c8.401-0.601,15.601,5.099,16.5,13.5
	l8.701,88.699C333.1,442.4,326.201,471.499,309.101,490.399z"/>
<g>
	<path style="fill:#DFCCBF;" d="M329.5,405.799c3.6,36.601-3.3,65.7-20.4,84.6C296.201,504.5,277.899,512,256,512V303.6h48.3
		c8.401-0.601,15.601,5.099,16.5,13.5L329.5,405.799z"/>
	<path style="fill:#DFCCBF;" d="M391,266.7c0,19.199-8.101,37.2-22.2,49.799c-14.7,12.9-33.9,18.9-53.401,16.8
		c-19.199-2.1-39.3-3.3-59.399-3.3s-40.201,1.199-59.399,3.3c-2.701,0.3-5.4,0.601-8.101,0.601c-16.5,0-32.701-6.301-45.3-17.401
		C129.101,303.9,121,285.899,121,266.7c0-8.101,6.599-15,15-15h240C384.401,251.7,391,258.6,391,266.7z"/>
</g>
<path style="fill:#C8AD92;" d="M391,266.7c0,19.199-8.101,37.2-22.2,49.799c-14.7,12.9-33.9,18.9-53.401,16.8
	c-19.199-2.1-39.3-3.3-59.399-3.3v-78.3h120C384.401,251.7,391,258.6,391,266.7z"/>
<path style="fill:#FC4629;" d="M481,225c0,19.2-8.699,37.5-23.401,49.499c-11.699,9.6-26.1,14.702-40.8,14.702
	c-4.2,0-8.399-0.3-12.599-1.201l-32.4-6.6C333.701,273.6,295,270,256,270s-77.701,3.6-115.8,11.4l-32.401,6.599
	c-18.9,3.6-38.399-1.199-53.399-13.5C39.699,262.5,31,244.2,31,225c0-24.6,4.2-48.001,11.4-70.201l60-93.6
	C142.599,23.399,196.601,0,256,0s113.401,23.399,153.6,61.199l60,93.6C476.8,176.999,481,200.4,481,225z"/>
<path style="fill:#FF2615;" d="M481,225c0,19.2-8.699,37.5-23.401,49.499c-11.699,9.6-26.1,14.702-40.8,14.702
	c-4.2,0-8.399-0.3-12.599-1.201l-32.4-6.6C333.701,273.6,295,270,256,270V0c59.399,0,113.401,23.399,153.6,61.199l60,93.6
	C476.8,176.999,481,200.4,481,225z"/>
<path style="fill:#FEDBAB;" d="M256,90c-32.999,0-60,26.999-60,60c0,32.999,27.001,60,60,60s60-27.001,60-60
	C316,116.999,288.999,90,256,90z"/>
<path style="fill:#FEC478;" d="M361,120c0,33.091,26.909,60,60,60c20.067,0,37.751-9.983,48.649-25.151
	c-11.909-36.169-32.783-68.21-59.949-93.706C382.006,66.449,361,90.778,361,120z"/>
<path style="fill:#FEDBAB;" d="M91,180c33.091,0,60-26.909,60-60c0-29.225-21.011-53.557-48.712-58.859
	c-27.162,25.496-48.034,57.535-59.941,93.704C53.245,170.015,70.932,180,91,180z"/>
<path style="fill:#FEC478;" d="M256,210V90c32.999,0,60,26.999,60,60C316,182.999,288.999,210,256,210z"/>
<g>
</g>
<g>
</g>
<g>
</g>
<g>
</g>
<g>
</g>
<g>
</g>
<g>
</g>
<g>
</g>
<g>
</g>
<g>
</g>
<g>
</g>
<g>
</g>
<g>
</g>
<g>
</g>
<g>
</g>
</svg>
