<?xml version="1.0" encoding="iso-8859-1"?>
<!-- Generator: Adobe Illustrator 19.0.0, SVG Export Plug-In . SVG Version: 6.00 Build 0)  -->
<svg version="1.1" id="Capa_1" xmlns="http://www.w3.org/2000/svg" xmlns:xlink="http://www.w3.org/1999/xlink" x="0px" y="0px"
	 viewBox="0 0 512 512" style="enable-background:new 0 0 512 512;" xml:space="preserve">
<path style="fill:#FE9923;" d="M481,452h-90l-30-60h90c16.569,0,30,13.431,30,30V452z"/>
<path style="fill:#FEA832;" d="M121,452H31v-30c0-16.569,13.431-30,30-30h90L121,452z"/>
<rect x="121" y="422" style="fill:#57555C;" width="270" height="30"/>
<path style="fill:#73553A;" d="M271,165v121c0,8.399-6.599,15-15,15s-15-6.601-15-15V165c0-8.401,6.599-15,15-15
	S271,156.599,271,165z"/>
<path style="fill:#1689FC;" d="M91,165v15h90.601L252.1,0.3C163.001,2.1,91,75.3,91,165z"/>
<path style="fill:#136EF1;" d="M259.9,0.3L330.399,180H421v-15C421,75.3,348.999,2.1,259.9,0.3z"/>
<path style="fill:#59422D;" d="M271,165v121c0,8.399-6.599,15-15,15V150C264.401,150,271,156.599,271,165z"/>
<rect x="256" y="422" style="fill:#3C3A41;" width="135" height="30"/>
<path style="fill:#17ACE8;" d="M330.399,180H181.601C179.2,114,192.7,51,218.5,20.099C230.501,5.7,242.8,1.199,252.1,0.3
	C253.6,0,254.801,0,256,0c1.199,0,2.401,0,3.9,0.3c9.3,0.899,21.599,5.4,33.6,19.799C319.3,51,332.8,114,330.399,180z"/>
<path style="fill:#1689FC;" d="M330.399,180H256V0c1.199,0,2.401,0,3.9,0.3c9.3,0.899,21.599,5.4,33.6,19.799
	C319.3,51,332.8,114,330.399,180z"/>
<polygon style="fill:#3C3A41;" points="394.553,512 331.776,320.746 360.224,311.254 423,502.508 "/>
<polygon style="fill:#57555C;" points="117.447,512 89,502.508 151.776,311.254 180.224,320.746 "/>
<path style="fill:#FEA832;" d="M391,301v30H121v-30c0-16.5,13.5-30,30-30h210C377.5,271,391,284.5,391,301z"/>
<path style="fill:#FE9923;" d="M391,301v30H256v-60h105C377.5,271,391,284.5,391,301z"/>
<g>
</g>
<g>
</g>
<g>
</g>
<g>
</g>
<g>
</g>
<g>
</g>
<g>
</g>
<g>
</g>
<g>
</g>
<g>
</g>
<g>
</g>
<g>
</g>
<g>
</g>
<g>
</g>
<g>
</g>
</svg>
