<?xml version="1.0" encoding="iso-8859-1"?>
<!-- Generator: Adobe Illustrator 19.0.0, SVG Export Plug-In . SVG Version: 6.00 Build 0)  -->
<svg version="1.1" id="Capa_1" xmlns="http://www.w3.org/2000/svg" xmlns:xlink="http://www.w3.org/1999/xlink" x="0px" y="0px"
	 viewBox="0 0 512 512" style="enable-background:new 0 0 512 512;" xml:space="preserve">
<path style="fill:#C8AD92;" d="M404.341,315.033c-7.383,0-13.813-5.449-14.854-12.964c-1.113-8.218,4.629-15.776,12.832-16.904
	C446.602,279.115,482,240.78,482,196c0-49.629-42.371-90-92-90c-20.684,0-40.122,6.826-56.235,19.717
	c-6.46,5.171-15.879,4.16-21.079-2.329c-5.186-6.46-4.146-15.908,2.329-21.079C336.182,85.346,362.813,76,390,76
	c66.167,0,122,53.833,122,120c0,59.707-46.546,110.815-105.608,118.901C405.703,314.989,405.015,315.033,404.341,315.033z"/>
<polygon style="fill:#EFE6DE;" points="375,46 345,106 294.901,136 118.801,136 90,106 60,16 210,30.399 "/>
<polygon style="fill:#DFCCBF;" points="375,46 345,106 294.901,136 210,136 210,30.399 "/>
<path style="fill:#6ECD24;" d="M420,316c0,72.599-36.599,138.9-98.101,177.599L318.3,496H101.7l-3.6-2.401
	C36.599,454.9,0,388.599,0,316c0-61.201,28.801-119.101,75.3-159.3c13.2-11.4,21.599-30,15.899-47.1L90,106h255l-2.401,5.7
	c-6.899,17.399-4.199,37.2,9.3,49.499C395.099,200.799,420,257.199,420,316z"/>
<path style="fill:#66BD21;" d="M420,316c0,72.599-36.599,138.9-98.101,177.599L318.3,496H210V106h135l-2.401,5.7
	c-6.899,17.399-4.199,37.2,9.3,49.499C395.099,200.799,420,257.199,420,316z"/>
<path style="fill:#FEDB41;" d="M320.4,200.499l-10.499-10.8l-191.1,191.1l10.8,10.501c22.5,22.5,51,35.4,80.4,38.699
	c5.099,0.601,9.901,0.899,15,0.899c34.501,0,69-13.198,95.4-39.598C373.2,338.8,373.2,252.999,320.4,200.499z"/>
<path style="fill:#FCBF29;" d="M320.4,391.3c-26.4,26.4-60.899,39.598-95.4,39.598c-5.099,0-9.901-0.298-15-0.899V289.6
	l99.901-99.901l10.499,10.8C373.2,252.999,373.2,338.8,320.4,391.3z"/>
<g>
	<rect x="150" y="256" style="fill:#FEDB41;" width="30" height="30"/>
	<rect x="120" y="196" style="fill:#FEDB41;" width="30" height="30"/>
</g>
<rect x="210" y="166" style="fill:#FCBF29;" width="30" height="30"/>
<path style="fill:#FEA832;" d="M309,232.899l-99,99L162.001,379.9C176.4,390.7,192.9,397.299,210,400c31.5,4.2,65.099-5.7,89.399-30
	C336.599,332.8,339.901,273.999,309,232.899z"/>
<path style="fill:#FE9923;" d="M299.399,370c-24.3,24.3-57.9,34.2-89.399,30v-68.101l99-99
	C339.901,273.999,336.599,332.8,299.399,370z"/>
<path style="fill:#FCBF29;" d="M345.938,294.848l-119.209-13.887l-16.626,16.626l13.887,119.209
	c0.894,7.632,7.368,13.257,14.883,13.257c0.571,0,1.157-0.029,1.758-0.103c8.218-0.952,14.121-8.408,13.154-16.626l-11.693-100.375
	l100.375,11.693c0.586,0.073,1.172,0.103,1.743,0.103c7.515,0,13.989-5.625,14.883-13.257
	C360.059,303.256,354.155,295.8,345.938,294.848z"/>
<g>
</g>
<g>
</g>
<g>
</g>
<g>
</g>
<g>
</g>
<g>
</g>
<g>
</g>
<g>
</g>
<g>
</g>
<g>
</g>
<g>
</g>
<g>
</g>
<g>
</g>
<g>
</g>
<g>
</g>
</svg>
