<?xml version="1.0" encoding="iso-8859-1"?>
<!-- Generator: Adobe Illustrator 19.0.0, SVG Export Plug-In . SVG Version: 6.00 Build 0)  -->
<svg version="1.1" id="Capa_1" xmlns="http://www.w3.org/2000/svg" xmlns:xlink="http://www.w3.org/1999/xlink" x="0px" y="0px"
	 viewBox="0 0 512 512" style="enable-background:new 0 0 512 512;" xml:space="preserve">
<path style="fill:#57555C;" d="M95.146,240c-8.291,0-15-6.709-15-15v-60c0-57.891,47.109-105,105-105h90c8.291,0,15,6.709,15,15
	s-6.709,15-15,15h-90c-41.353,0-75,33.647-75,75v60C110.146,233.291,103.437,240,95.146,240z"/>
<polygon style="fill:#2B292C;" points="408.124,49.717 488.778,29.546 481.513,0.454 322.167,40.283 478.437,118.418 
	491.854,91.582 "/>
<path style="fill:#57555C;" d="M260.146,30v120h120V30H260.146z"/>
<path style="fill:#FC4629;" d="M245.146,90c-24.814,0-45-20.186-45-45s20.186-45,45-45s45,20.186,45,45S269.96,90,245.146,90z
	 M245.146,30c-8.276,0-15,6.724-15,15s6.724,15,15,15s15-6.724,15-15S253.422,30,245.146,30z"/>
<rect x="320.15" y="30" style="fill:#3C3A41;" width="60" height="120"/>
<path style="fill:#FC4629;" d="M170.146,421h-150l35.01-211h79.98L170.146,421z"/>
<polygon style="fill:#57555C;" points="440.146,452 440.146,512 200.146,512 200.146,452 230.146,421 410.146,421 "/>
<polygon style="fill:#3C3A41;" points="440.146,452 440.146,512 320.146,512 320.146,421 410.146,421 "/>
<path style="fill:#FC4629;" d="M380.146,270v91l60,30v61h-240V195c0-41.4,33.6-75,75-75h90c41.4,0,75,33.6,75,75v15L380.146,270z"/>
<path style="fill:#FF2615;" d="M380.146,270v91l60,30v61h-120V120h45c41.4,0,75,33.6,75,75v15L380.146,270z"/>
<rect x="320.15" y="210" style="fill:#DFCCBF;" width="120" height="181"/>
<g>
</g>
<g>
</g>
<g>
</g>
<g>
</g>
<g>
</g>
<g>
</g>
<g>
</g>
<g>
</g>
<g>
</g>
<g>
</g>
<g>
</g>
<g>
</g>
<g>
</g>
<g>
</g>
<g>
</g>
</svg>
