<?xml version="1.0" encoding="iso-8859-1"?>
<!-- Generator: Adobe Illustrator 19.0.0, SVG Export Plug-In . SVG Version: 6.00 Build 0)  -->
<svg version="1.1" id="Capa_1" xmlns="http://www.w3.org/2000/svg" xmlns:xlink="http://www.w3.org/1999/xlink" x="0px" y="0px"
	 viewBox="0 0 512 512" style="enable-background:new 0 0 512 512;" xml:space="preserve">
<path style="fill:#57555C;" d="M391,90v121c0,49.799-53.699,90-120,90s-120-40.201-120-90V90H391z"/>
<path style="fill:#3C3A41;" d="M391,90v121c0,49.799-53.699,90-120,90V90H391z"/>
<path style="fill:#EFE6DE;" d="M391,90c0,49.799-53.699,90-120,90s-120-40.201-120-90c0-49.801,53.699-90,120-90S391,40.199,391,90z
	"/>
<path style="fill:#DFCCBF;" d="M391,90c0,49.799-53.699,90-120,90V0C337.301,0,391,40.199,391,90z"/>
<path style="fill:#FC4629;" d="M331,90c0,16.5-27.001,30-60,30s-60-13.5-60-30s27.001-30,60-30S331,73.5,331,90z"/>
<path style="fill:#FF2615;" d="M331,90c0,16.5-27.001,30-60,30V60C303.999,60,331,73.5,331,90z"/>
<path style="fill:#57555C;" d="M256,301v121c0,49.799-53.699,90-120,90S16,471.799,16,422V301H256z"/>
<path style="fill:#3C3A41;" d="M256,301v121c0,49.799-53.699,90-120,90V301H256z"/>
<path style="fill:#EFE6DE;" d="M256,301c0,49.799-53.699,90-120,90S16,350.799,16,301c0-49.801,53.699-90,120-90
	S256,251.199,256,301z"/>
<path style="fill:#DFCCBF;" d="M256,301c0,49.799-53.699,90-120,90V211C202.301,211,256,251.199,256,301z"/>
<path style="fill:#FC4629;" d="M196,301c0,16.5-27.001,30-60,30s-60-13.5-60-30s27.001-30,60-30S196,284.5,196,301z"/>
<path style="fill:#FF2615;" d="M196,301c0,16.5-27.001,30-60,30v-60C168.999,271,196,284.5,196,301z"/>
<path style="fill:#57555C;" d="M496,301v121c0,49.799-53.699,90-120,90s-120-40.201-120-90V301H496z"/>
<path style="fill:#3C3A41;" d="M496,301v121c0,49.799-53.699,90-120,90V301H496z"/>
<path style="fill:#EFE6DE;" d="M496,301c0,49.799-53.699,90-120,90s-120-40.201-120-90c0-49.801,53.699-90,120-90
	S496,251.199,496,301z"/>
<path style="fill:#DFCCBF;" d="M496,301c0,49.799-53.699,90-120,90V211C442.301,211,496,251.199,496,301z"/>
<path style="fill:#FC4629;" d="M436,301c0,16.5-27.001,30-60,30s-60-13.5-60-30s27.001-30,60-30S436,284.5,436,301z"/>
<path style="fill:#FF2615;" d="M436,301c0,16.5-27.001,30-60,30v-60C408.999,271,436,284.5,436,301z"/>
<g>
</g>
<g>
</g>
<g>
</g>
<g>
</g>
<g>
</g>
<g>
</g>
<g>
</g>
<g>
</g>
<g>
</g>
<g>
</g>
<g>
</g>
<g>
</g>
<g>
</g>
<g>
</g>
<g>
</g>
</svg>
