<?xml version="1.0" encoding="iso-8859-1"?>
<!-- Generator: Adobe Illustrator 19.0.0, SVG Export Plug-In . SVG Version: 6.00 Build 0)  -->
<svg version="1.1" id="Capa_1" xmlns="http://www.w3.org/2000/svg" xmlns:xlink="http://www.w3.org/1999/xlink" x="0px" y="0px"
	 viewBox="0 0 512 512" style="enable-background:new 0 0 512 512;" xml:space="preserve">
<path style="fill:#1689FC;" d="M15,120c-8.291,0-15,6.709-15,15v242c0,33.834,22.485,64.336,60,87.788l31-163.557L60,120H15z"/>
<path style="fill:#136EF1;" d="M497,120h-45l-30,181.231l30,163.557c37.515-23.452,60-53.954,60-87.788V135
	C512,126.709,505.291,120,497,120z"/>
<path style="fill:#17ACE8;" d="M452,120v344.9C405.5,493.7,335.2,512,256,512s-149.5-18.3-196-47.1V120H452z"/>
<path style="fill:#1689FC;" d="M452,120v344.9C405.5,493.7,335.2,512,256,512V120H452z"/>
<path style="fill:#EFE6DE;" d="M256,0C112.899,0,0,59.399,0,135c0,75.599,112.899,135,256,135s256-59.401,256-135
	C512,59.399,399.101,0,256,0z"/>
<g>
	<path style="fill:#DFCCBF;" d="M512,135c0,75.599-112.899,135-256,135V0C399.101,0,512,59.399,512,135z"/>
	<path style="fill:#DFCCBF;" d="M452,135c0,30-78.701,75-196,75S60,165,60,135c0-24.901,55.3-60.601,141.7-71.4l54.3,30l54.3-30
		C396.7,74.399,452,110.099,452,135z"/>
</g>
<path style="fill:#C8AD92;" d="M452,135c0,30-78.701,75-196,75V93.6l54.3-30C396.7,74.399,452,110.099,452,135z"/>
<path style="fill:#57555C;" d="M305.501,98.401C297.1,111.899,283.001,120,267.1,120h-22.2c-15.901,0-30-8.101-38.401-21.599
	C199.9,87.9,198.401,75.3,201.7,63.6c16.8-2.401,35.1-3.6,54.3-3.6s37.5,1.199,54.3,3.6C313.599,75.3,312.1,87.9,305.501,98.401z"/>
<path style="fill:#3C3A41;" d="M305.501,98.401C297.1,111.899,283.001,120,267.1,120H256V60c19.2,0,37.5,1.199,54.3,3.6
	C313.599,75.3,312.1,87.9,305.501,98.401z"/>
<path style="fill:#FEDB41;" d="M386.499,342.499l-20.999-21l-41.4,41.1C314.5,350.3,289.3,320.3,256,307.7
	c-9.3-3.6-19.501-5.7-30-5.7c-57.001,0-100.499,63.9-102.599,66.599l-5.4,8.401l5.4,8.399C125.501,388.1,168.999,452,226,452
	c10.499,0,20.7-2.1,30-5.7c33.3-12.599,58.5-42.599,68.101-54.901l41.4,41.1l20.999-21L352.301,377L386.499,342.499z"/>
<rect x="196" y="362" style="fill:#57555C;" width="30" height="30"/>
<path style="fill:#FCBF29;" d="M352.301,377l34.199,34.499l-20.999,21l-41.4-41.1C314.5,403.7,289.3,433.7,256,446.3V307.7
	c33.3,12.599,58.5,42.599,68.101,54.899l41.4-41.1l20.999,21L352.301,377z"/>
<g>
</g>
<g>
</g>
<g>
</g>
<g>
</g>
<g>
</g>
<g>
</g>
<g>
</g>
<g>
</g>
<g>
</g>
<g>
</g>
<g>
</g>
<g>
</g>
<g>
</g>
<g>
</g>
<g>
</g>
</svg>
