<?xml version="1.0" encoding="iso-8859-1"?>
<!-- Generator: Adobe Illustrator 19.0.0, SVG Export Plug-In . SVG Version: 6.00 Build 0)  -->
<svg version="1.1" id="Capa_1" xmlns="http://www.w3.org/2000/svg" xmlns:xlink="http://www.w3.org/1999/xlink" x="0px" y="0px"
	 viewBox="0 0 512 512" style="enable-background:new 0 0 512 512;" xml:space="preserve">
<path style="fill:#FF2615;" d="M391,428.899V512H121v-83.101c0-8.099,6.599-15,15-15h240C384.401,413.899,391,420.801,391,428.899z"
	/>
<path style="fill:#BF0000;" d="M391,428.899V512H256v-98.101h120C384.401,413.899,391,420.801,391,428.899z"/>
<polygon style="fill:#FC4629;" points="271,0 271,15 271,30 241,30 241,15 241,0 151,0 151,121 361,121 361,0 "/>
<polygon style="fill:#FF2615;" points="271,0 271,15 271,30 256,30 256,121 361,121 361,0 "/>
<path style="fill:#57555C;" d="M421,166v15l-30,30H121l-30-30v-15c0-41.4,33.6-75,75-75h180C387.4,91,421,124.6,421,166z"/>
<path style="fill:#3C3A41;" d="M421,166v15l-30,30H256V91h90C387.4,91,421,124.6,421,166z"/>
<path style="fill:#57555C;" d="M421,362v15c0,41.4-33.6,75-75,75H166c-41.4,0-75-33.6-75-75v-15l30-30h270L421,362z"/>
<path style="fill:#3C3A41;" d="M391,332l30,30v15c0,41.4-33.6,75-75,75h-90V332H391z"/>
<rect x="91" y="181" style="fill:#FC4629;" width="330" height="181"/>
<rect x="256" y="181" style="fill:#FF2615;" width="165" height="181"/>
<g>
</g>
<g>
</g>
<g>
</g>
<g>
</g>
<g>
</g>
<g>
</g>
<g>
</g>
<g>
</g>
<g>
</g>
<g>
</g>
<g>
</g>
<g>
</g>
<g>
</g>
<g>
</g>
<g>
</g>
</svg>
