<?xml version="1.0" encoding="iso-8859-1"?>
<!-- Generator: Adobe Illustrator 19.0.0, SVG Export Plug-In . SVG Version: 6.00 Build 0)  -->
<svg version="1.1" id="Capa_1" xmlns="http://www.w3.org/2000/svg" xmlns:xlink="http://www.w3.org/1999/xlink" x="0px" y="0px"
	 viewBox="0 0 512 512" style="enable-background:new 0 0 512 512;" xml:space="preserve">
<path style="fill:#57555C;" d="M226,0v271h60V0H226z"/>
<rect x="256" style="fill:#3C3A41;" width="30" height="271"/>
<polygon style="fill:#17ACE8;" points="150,30 150,91 105,121 60,91 60,30 "/>
<polygon style="fill:#1689FC;" points="150,30 150,91 105,121 105,30 "/>
<path style="fill:#EFE6DE;" d="M160.499,170.501C153.9,163.599,150,154.6,150,144.699V91H60v53.699c0,9.901-3.9,18.9-10.499,25.801
	C36.899,182.8,30,199.6,30,217.301V271h150v-53.699C180,199.6,173.101,182.8,160.499,170.501z"/>
<path style="fill:#DFCCBF;" d="M180,217.301V271h-75V91h45v53.699c0,9.901,3.9,18.9,10.499,25.801
	C173.101,182.8,180,199.6,180,217.301z"/>
<path style="fill:#6ECD24;" d="M482,271v135c0,57.9-48.1,106-106,106H135c-57.9,0-105-48.1-105-106V271H482z"/>
<path style="fill:#66BD21;" d="M482,271v135c0,57.9-48.1,106-106,106H256V271H482z"/>
<path style="fill:#FEA832;" d="M512,331v60h-48.6c-15.901,0-32.5,2.401-47.5,7.5c-8.101,2.701-16.5,4.799-24.901,6.301
	c-11.1,2.1-21.899,3.3-32.999,3.3c-27.301,0-54.001-6.301-78.6-18.6L271,385.3v-60l8.401-25.8L391,300.399L463.4,301L512,331z"/>
<polygon style="fill:#BF6015;" points="301,271 271,301 0,301 0,241 271,241 "/>
<polygon style="fill:#994C10;" points="301,271 271,301 256,301 256,241 271,241 "/>
<path style="fill:#FE9923;" d="M512,331v60h-48.6c-15.901,0-32.5,2.401-47.5,7.5c-8.101,2.701-16.5,4.799-24.901,6.301V300.399
	L463.4,301L512,331z"/>
<path style="fill:#FEDB41;" d="M512,241v90h-48.6c-15.901,0-32.5,2.401-47.5,7.5c-8.101,2.701-16.5,4.799-24.901,6.301
	c-11.1,2.1-21.899,3.3-32.999,3.3c-27.301,0-54.001-6.301-78.6-18.6L271,325.3V241H512z"/>
<path style="fill:#FCBF29;" d="M512,241v90h-48.6c-15.901,0-32.5,2.401-47.5,7.5c-8.101,2.701-16.5,4.799-24.901,6.301V241H512z"/>
<g>
</g>
<g>
</g>
<g>
</g>
<g>
</g>
<g>
</g>
<g>
</g>
<g>
</g>
<g>
</g>
<g>
</g>
<g>
</g>
<g>
</g>
<g>
</g>
<g>
</g>
<g>
</g>
<g>
</g>
</svg>
