<?xml version="1.0" encoding="iso-8859-1"?>
<!-- Generator: Adobe Illustrator 19.0.0, SVG Export Plug-In . SVG Version: 6.00 Build 0)  -->
<svg version="1.1" id="Capa_1" xmlns="http://www.w3.org/2000/svg" xmlns:xlink="http://www.w3.org/1999/xlink" x="0px" y="0px"
	 viewBox="0 0 512 512" style="enable-background:new 0 0 512 512;" xml:space="preserve">
<path style="fill:#73553A;" d="M346,122c-57.99,0-105,47.01-105,105s47.01,105,105,105s105-47.01,105-105S403.99,122,346,122z
	 M346,272c-24.853,0-45-20.147-45-45s20.147-45,45-45s45,20.147,45,45S370.853,272,346,272z"/>
<path style="fill:#EFE6DE;" d="M388.299,344.599l-46.199,12.9c-33.3-14.399-72.001-9.9-101.1,12.001
	c-9.3,6.899-19.501,12.599-30,16.8c-39.6,15.899-85.499,11.7-122.1-12.6l-45.899-66.601c13.2-37.8,37.2-70.499,69.598-93.3
	C136.601,196.7,151,167.899,151,137v-15l60-28.9l4.501-2.1L271,122v15c0,30.899,14.399,59.7,38.401,76.8
	C352,243.8,379.9,291.2,388.299,344.599z"/>
<path style="fill:#DFCCBF;" d="M388.299,344.599l-46.199,12.9c-33.3-14.399-72.001-9.9-101.1,12.001
	c-9.3,6.899-19.501,12.599-30,16.8V93.1l4.501-2.1L271,122v15c0,30.899,14.399,59.7,38.401,76.8
	C352,243.8,379.9,291.2,388.299,344.599z"/>
<polygon style="fill:#FEDB41;" points="271,61 271,122 151,122 151,61 211,30 "/>
<polygon style="fill:#FCBF29;" points="271,122 211,122 211,30 271,61 "/>
<path style="fill:#FEDB41;" d="M391,377v1.199c-0.3,12.301-1.199,24.3-3.3,36.301l-45.9,96.599L334,512H80.8l-4.499-5.4
	C47.199,470.9,31,424.699,31,377c0-13.5,1.5-26.4,3.9-39.3c2.1-10.501,4.501-20.7,8.101-30.601l62.699,41.7
	c31.8,21,72.301,22.5,105.3,4.499c4.2-2.399,8.101-4.799,12.001-7.798c37.5-28.2,87.9-34.2,130.8-15.601l34.499,14.7
	C389.801,355.099,391,365.9,391,377z"/>
<path style="fill:#FCBF29;" d="M391,377v1.199c-0.3,12.301-1.199,24.3-3.3,36.301l-45.9,96.599L334,512H211V353.299
	c4.2-2.399,8.101-4.799,12.001-7.798c37.5-28.2,87.9-34.2,130.8-15.601l34.499,14.7C389.801,355.099,391,365.9,391,377z"/>
<path style="fill:#66BD21;" d="M421,362c-25.195,0-47.227,18.911-56.104,48.193l14.634,81.211C390.707,504.69,405.429,512,421,512
	c33.091,0,60-33.647,60-75S454.091,362,421,362z"/>
<path style="fill:#6ECD24;" d="M346,512c-41.353,0-75-26.909-75-60s33.647-60,75-60s75,26.909,75,60S387.353,512,346,512z"/>
<polygon style="fill:#896748;" points="301,0 271,61 151,61 121,0 "/>
<polygon style="fill:#73553A;" points="271,61 211,61 211,0 301,0 "/>
<g>
</g>
<g>
</g>
<g>
</g>
<g>
</g>
<g>
</g>
<g>
</g>
<g>
</g>
<g>
</g>
<g>
</g>
<g>
</g>
<g>
</g>
<g>
</g>
<g>
</g>
<g>
</g>
<g>
</g>
</svg>
