<?xml version="1.0" encoding="iso-8859-1"?>
<!-- Generator: Adobe Illustrator 19.0.0, SVG Export Plug-In . SVG Version: 6.00 Build 0)  -->
<svg version="1.1" id="Capa_1" xmlns="http://www.w3.org/2000/svg" xmlns:xlink="http://www.w3.org/1999/xlink" x="0px" y="0px"
	 viewBox="0 0 512 512" style="enable-background:new 0 0 512 512;" xml:space="preserve">
<path style="fill:#EFE6DE;" d="M512,58.559l-41.396,41.396l-115.485,51.798L85.514,272.757L43.056,230.3L200.575,72.782
	c73.239-73.239,184.053-88.099,272.789-39.273c8.491,4.246,16.558,9.341,24.2,14.861L512,58.559z"/>
<path style="fill:#DFCCBF;" d="M512,58.559l-41.396,41.396l-115.485,51.798L473.364,33.509c8.491,4.246,16.558,9.341,24.2,14.861
	L512,58.559z"/>
<path style="fill:#57555C;" d="M191.657,378.902L76.901,493.658c-17.619,17.619-46.066,17.62-63.687,0
	c-17.62-17.62-17.619-46.068,0-63.687l82.914-82.914c17.62-17.62,17.62-46.066,0-63.687l63.687,21.229l12.738,29.72L191.657,378.902
	z"/>
<path style="fill:#3C3A41;" d="M172.552,334.32l19.105,44.581L76.901,493.658c-17.619,17.619-46.066,17.62-63.687,0L172.552,334.32z
	"/>
<path style="fill:#DFCCBF;" d="M454.045,90.189c-8.067-4.669-16.347-9.127-25.051-12.312
	c-63.473-25.687-137.136-11.464-186.813,38.212L85.514,272.757l106.144,106.144L470.604,99.955L454.045,90.189z"/>
<path style="fill:#C8AD92;" d="M470.604,99.955L191.657,378.902l-31.843-31.843L428.995,77.877
	c8.704,3.185,16.984,7.642,25.051,12.312L470.604,99.955z"/>
<g>
</g>
<g>
</g>
<g>
</g>
<g>
</g>
<g>
</g>
<g>
</g>
<g>
</g>
<g>
</g>
<g>
</g>
<g>
</g>
<g>
</g>
<g>
</g>
<g>
</g>
<g>
</g>
<g>
</g>
</svg>
