<?xml version="1.0" encoding="iso-8859-1"?>
<!-- Generator: Adobe Illustrator 19.0.0, SVG Export Plug-In . SVG Version: 6.00 Build 0)  -->
<svg version="1.1" id="Capa_1" xmlns="http://www.w3.org/2000/svg" xmlns:xlink="http://www.w3.org/1999/xlink" x="0px" y="0px"
	 viewBox="0 0 512 512" style="enable-background:new 0 0 512 512;" xml:space="preserve">
<path style="fill:#FF2615;" d="M400.901,181L383.2,211H128.8l-17.701-30C117.4,165.7,121,149.2,121,132.4V0h90v76
	c0,24.3,19.2,45,45,45c2.401,0,5.099-0.3,7.8-0.601c21-3.6,37.2-24,37.2-47.699V0h90v132.4C391,149.2,394.6,165.7,400.901,181z"/>
<path style="fill:#BF0000;" d="M400.901,181L383.2,211H256v-90c2.401,0,5.099-0.3,7.8-0.601c21-3.6,37.2-24,37.2-47.699V0h90v132.4
	C391,149.2,394.6,165.7,400.901,181z"/>
<path style="fill:#57555C;" d="M106,211H76c-24.814,0-45,20.186-45,45v135v15v15h30v-15v-15V256c0-8.276,6.724-15,15-15h30
	c8.291,0,15-6.709,15-15S114.291,211,106,211z"/>
<path style="fill:#3C3A41;" d="M436,211h-30c-8.291,0-15,6.709-15,15s6.709,15,15,15h30c8.276,0,15,6.724,15,15v105v45v15h30v-15
	v-45V256C481,231.186,460.814,211,436,211z"/>
<path style="fill:#FC4629;" d="M421,259.6V512H91V259.6c0-16.5,2.701-33.001,7.8-48.6c2.401-7.5,5.4-14.7,8.699-21.601
	c1.5-2.699,2.401-5.7,3.6-8.399H400.9c1.199,2.699,2.1,5.7,3.6,8.399c3.3,6.901,6.299,14.101,8.699,21.601
	C418.299,226.599,421,243.1,421,259.6z"/>
<path style="fill:#FF2615;" d="M421,259.6V512H256V181h144.901c1.199,2.699,2.1,5.7,3.6,8.399c3.3,6.901,6.299,14.101,8.699,21.601
	C418.299,226.599,421,243.1,421,259.6z"/>
<path style="fill:#DFCCBF;" d="M361,331v15c0,56.1-46.199,105-105,105c-59.099,0-105-49.2-105-105v-15l35.099-30h153.6L361,331z"/>
<path style="fill:#C8AD92;" d="M339.699,301L361,331v15c0,56.1-46.199,105-105,105V301H339.699z"/>
<rect x="151" y="271" style="fill:#EFE6DE;" width="210" height="60"/>
<rect x="256" y="271" style="fill:#DFCCBF;" width="105" height="60"/>
<g>
</g>
<g>
</g>
<g>
</g>
<g>
</g>
<g>
</g>
<g>
</g>
<g>
</g>
<g>
</g>
<g>
</g>
<g>
</g>
<g>
</g>
<g>
</g>
<g>
</g>
<g>
</g>
<g>
</g>
</svg>
