<?xml version="1.0" encoding="iso-8859-1"?>
<!-- Generator: Adobe Illustrator 19.0.0, SVG Export Plug-In . SVG Version: 6.00 Build 0)  -->
<svg version="1.1" id="Capa_1" xmlns="http://www.w3.org/2000/svg" xmlns:xlink="http://www.w3.org/1999/xlink" x="0px" y="0px"
	 viewBox="0 0 512 512" style="enable-background:new 0 0 512 512;" xml:space="preserve">
<path style="fill:#FEDB41;" d="M239.5,90c0.899-4.801,1.5-9.901,1.5-15c0-41.4-33.6-75-75-75S91,33.6,91,75
	c0,5.099,0.601,10.199,1.5,15H0v422h332V90H239.5z"/>
<path style="fill:#FEA832;" d="M332,90v422H166V0c41.4,0,75,33.6,75,75c0,5.099-0.601,10.199-1.5,15H332z"/>
<path style="fill:#FF2615;" d="M166,316c-41.4,0-75,33.6-75,75s33.6,75,75,75s75-33.6,75-75S207.4,316,166,316z"/>
<path style="fill:#BF0000;" d="M241,391c0,41.4-33.6,75-75,75V316C207.4,316,241,349.6,241,391z"/>
<path style="fill:#EFE6DE;" d="M512,86.8v54.9l-45,124.799L422,391h-60V259.6c0-70.201,42.001-132.301,105-159
	c8.401-3.9,17.401-6.601,26.4-9.001L512,86.8z"/>
<path style="fill:#DFCCBF;" d="M512,86.8v54.9l-45,124.799V100.6c8.401-3.9,17.401-6.601,26.4-9.001L512,86.8z"/>
<path style="fill:#57555C;" d="M512,391v75c0,24.899-20.099,46-45,46s-45-21.101-45-46v-75l45-30L512,391z"/>
<path style="fill:#3C3A41;" d="M512,391v75c0,24.899-20.099,46-45,46V361L512,391z"/>
<path style="fill:#DFCCBF;" d="M490.401,152.5C482,156.7,474.2,161.8,467,168.1c-28.2,22.798-45,57.299-45,95.099V391h90V141.7
	L490.401,152.5z"/>
<path style="fill:#C8AD92;" d="M512,141.7V391h-45V168.1c7.2-6.301,15-11.4,23.401-15.601L512,141.7z"/>
<path style="fill:#6ECD24;" d="M166,226c-41.4,0-75,33.6-75,75s33.6,75,75,75s75-33.6,75-75S207.4,226,166,226z"/>
<path style="fill:#66BD21;" d="M241,301c0,41.4-33.6,75-75,75V226C207.4,226,241,259.6,241,301z"/>
<path style="fill:#FC4629;" d="M166,136c-41.4,0-75,33.6-75,75s33.6,75,75,75s75-33.6,75-75S207.4,136,166,136z"/>
<path style="fill:#FF2615;" d="M241,211c0,41.4-33.6,75-75,75V136C207.4,136,241,169.6,241,211z"/>
<rect x="151" y="60" style="fill:#EFE6DE;" width="30" height="30"/>
<rect x="166" y="60" style="fill:#DFCCBF;" width="15" height="30"/>
<g>
</g>
<g>
</g>
<g>
</g>
<g>
</g>
<g>
</g>
<g>
</g>
<g>
</g>
<g>
</g>
<g>
</g>
<g>
</g>
<g>
</g>
<g>
</g>
<g>
</g>
<g>
</g>
<g>
</g>
</svg>
