<?xml version="1.0" encoding="iso-8859-1"?>
<!-- Generator: Adobe Illustrator 19.0.0, SVG Export Plug-In . SVG Version: 6.00 Build 0)  -->
<svg version="1.1" id="Capa_1" xmlns="http://www.w3.org/2000/svg" xmlns:xlink="http://www.w3.org/1999/xlink" x="0px" y="0px"
	 viewBox="0 0 512.001 512.001" style="enable-background:new 0 0 512.001 512.001;" xml:space="preserve">
<path style="fill:#57555C;" d="M172.4,403.276l-95.512,95.512c-17.616,17.616-46.058,17.617-63.675,0
	c-17.618-17.617-17.616-46.06,0-63.675l95.512-95.512L172.4,403.276z"/>
<path style="fill:#3C3A41;" d="M172.4,403.276l-95.512,95.512c-17.616,17.616-46.058,17.617-63.675,0l127.35-127.35L172.4,403.276z"
	/>
<rect x="118.584" y="303.371" transform="matrix(-0.7071 0.7071 -0.7071 -0.7071 555.667 406.5935)" style="fill:#DFCCBF;" width="150.082" height="30.016"/>
<rect x="123.882" y="316.178" transform="matrix(-0.7071 0.7071 -0.7071 -0.7071 568.4613 411.8997)" style="fill:#C8AD92;" width="150.082" height="15.008"/>
<path style="fill:#BF6015;" d="M183.013,435.114L172.4,445.727L66.275,339.601l10.613-10.613c29.29-29.29,76.835-29.29,106.125,0
	c14.645,14.645,22.075,33.96,22.075,53.063C205.086,401.153,197.658,420.469,183.013,435.114z"/>
<path style="fill:#994C10;" d="M205.087,382.051c-0.001,19.102-7.429,38.417-22.075,53.063l-10.613,10.613l-53.063-53.063
	l63.675-63.675C197.658,343.634,205.087,362.948,205.087,382.051z"/>
<path style="fill:#EFE6DE;" d="M320.975,0.001L129.951,191.026l191.025,191.025l191.025-191.025L320.975,0.001z M236.076,212.251
	l-21.225-21.225L320.975,84.901l21.225,21.225L236.076,212.251z M278.525,254.7L257.3,233.476l106.125-106.125l21.225,21.225
	L278.525,254.7z M320.975,297.151l-21.225-21.225l106.125-106.125l21.225,21.225L320.975,297.151z"/>
<path style="fill:#DFCCBF;" d="M416.488,95.513l-42.45,42.45l10.613,10.613L278.525,254.7l-10.613-10.613l-42.45,42.45
	l95.512,95.512L512,191.024L416.488,95.513z M320.975,297.151l-21.225-21.225l106.125-106.125l21.225,21.225L320.975,297.151z"/>
<g>
</g>
<g>
</g>
<g>
</g>
<g>
</g>
<g>
</g>
<g>
</g>
<g>
</g>
<g>
</g>
<g>
</g>
<g>
</g>
<g>
</g>
<g>
</g>
<g>
</g>
<g>
</g>
<g>
</g>
</svg>
