<?xml version="1.0" encoding="iso-8859-1"?>
<!-- Generator: Adobe Illustrator 19.0.0, SVG Export Plug-In . SVG Version: 6.00 Build 0)  -->
<svg version="1.1" id="Capa_1" xmlns="http://www.w3.org/2000/svg" xmlns:xlink="http://www.w3.org/1999/xlink" x="0px" y="0px"
	 viewBox="0 0 512 512" style="enable-background:new 0 0 512 512;" xml:space="preserve">
<rect x="226" style="fill:#BF6015;" width="60" height="301"/>
<rect x="256" style="fill:#994C10;" width="30" height="301"/>
<path style="fill:#6ECD24;" d="M481.399,211L407,391h-75V217.299c0-17.699,6.899-34.499,19.501-46.8
	c6.599-6.9,10.499-15.899,10.499-25.8V121l45-30l45,30v23.699c0,9.901,3.9,18.9,10.499,25.8C473.599,181.3,479.9,195.7,481.399,211z
	"/>
<path style="fill:#66BD21;" d="M481.399,211L407,391V91l45,30v23.699c0,9.901,3.9,18.9,10.499,25.8
	C473.599,181.3,479.9,195.7,481.399,211z"/>
<rect x="362" y="30" style="fill:#EFE6DE;" width="90" height="91"/>
<g>
	<rect x="407" y="30" style="fill:#DFCCBF;" width="45" height="91"/>
	<path style="fill:#DFCCBF;" d="M482,217.211c0-2.109-0.412-4.136-0.606-6.211H407v180h75V217.211z"/>
</g>
<path style="fill:#6ECD24;" d="M180,217.299V391h-75L30.601,211c1.5-15.3,7.8-29.7,18.9-40.501C56.1,163.599,60,154.6,60,144.699
	V121l45-30l45,30v23.699c0,9.901,3.9,18.9,10.499,25.8C173.101,182.8,180,199.6,180,217.299z"/>
<path style="fill:#66BD21;" d="M180,217.299V391h-75V91l45,30v23.699c0,9.901,3.9,18.9,10.499,25.8
	C173.101,182.8,180,199.6,180,217.299z"/>
<rect x="60" y="30" style="fill:#EFE6DE;" width="90" height="91"/>
<rect x="105" y="30" style="fill:#DFCCBF;" width="45" height="91"/>
<path style="fill:#EFE6DE;" d="M30,217.211c0-2.109,0.412-4.136,0.606-6.211H105v180H30V217.211z"/>
<polygon style="fill:#FEA832;" points="512,421 512,512 0,512 0,421 30,391 481.399,391 "/>
<polygon style="fill:#FE9923;" points="512,421 512,512 256,512 256,391 481.399,391 "/>
<polygon style="fill:#FEDB41;" points="512,336.099 512,421 0,421 0,336.099 226,241 286,241 "/>
<polygon style="fill:#FCBF29;" points="512,336.099 512,421 256,421 256,241 286,241 "/>
<path style="fill:#BF6015;" d="M256,361c-60,0-106,25.8-106,60s46,60,106,60s106-25.8,106-60S316,361,256,361z"/>
<path style="fill:#994C10;" d="M362,421c0,34.2-46,60-106,60V361C316,361,362,386.8,362,421z"/>
<rect x="332" y="30" style="fill:#57555C;" width="150" height="30"/>
<rect x="407" y="30" style="fill:#3C3A41;" width="75" height="30"/>
<rect x="30" y="30" style="fill:#57555C;" width="150" height="30"/>
<rect x="105" y="30" style="fill:#3C3A41;" width="75" height="30"/>
<g>
</g>
<g>
</g>
<g>
</g>
<g>
</g>
<g>
</g>
<g>
</g>
<g>
</g>
<g>
</g>
<g>
</g>
<g>
</g>
<g>
</g>
<g>
</g>
<g>
</g>
<g>
</g>
<g>
</g>
</svg>
