<?xml version="1.0" encoding="iso-8859-1"?>
<!-- Generator: Adobe Illustrator 19.0.0, SVG Export Plug-In . SVG Version: 6.00 Build 0)  -->
<svg version="1.1" id="Capa_1" xmlns="http://www.w3.org/2000/svg" xmlns:xlink="http://www.w3.org/1999/xlink" x="0px" y="0px"
	 viewBox="0 0 512 512" style="enable-background:new 0 0 512 512;" xml:space="preserve">
<path style="fill:#EFE6DE;" d="M512,60.245L451.755,0L272.164,129.95L382.05,239.836L512,60.245z"/>
<polygon style="fill:#DFCCBF;" points="382.05,239.836 327.107,184.893 481.878,30.122 512,60.245 "/>
<path style="fill:#57555C;" d="M274.074,89.433l-63.64,63.64l148.492,148.492l63.64-63.64L274.074,89.433z"/>
<rect x="308.616" y="180.121" transform="matrix(-0.7071 0.7071 -0.7071 -0.7071 768.1469 147.0649)" style="fill:#3C3A41;" width="89.999" height="104.999"/>
<path style="fill:#57555C;" d="M464.993,195.499L305.894,36.4c-29.274-29.274-76.792-29.274-106.066,0s-29.274,76.792,0,106.066
	l10.607,10.607c5.94,5.94,15.274,5.939,21.213,0c5.94-5.94,5.94-15.273,0-21.213l-10.607-10.607
	c-17.607-17.607-17.606-46.034,0-63.64c17.607-17.607,46.032-17.607,63.64,0l159.099,159.1L464.993,195.499z"/>
<rect x="364.759" y="153.97" transform="matrix(-0.7071 -0.7071 0.7071 -0.7071 592.8253 583.4968)" style="fill:#3C3A41;" width="104.999" height="30"/>
<path style="fill:#FC4629;" d="M269.194,453.664L187.524,512L0,324.476l35.213-49.639l47.942,5.516l84.853-84.853l-8.486-50.912
	c14.214-9.545,28.851-18.666,44.337-26.092l9.545-4.879l184.979,184.979l-4.879,9.545
	C364.655,365.842,321.805,416.328,269.194,453.664z"/>
<path style="fill:#FF2615;" d="M269.194,453.664L187.524,512l-93.762-93.762l212.132-212.132l92.489,92.489l-4.879,9.545
	C364.655,365.842,321.805,416.328,269.194,453.664z"/>
<path style="fill:#FEDB41;" d="M316.501,301.565l-127.28,127.28L35.213,274.837l23.123-32.031
	c27.577-38.608,61.942-71.702,101.186-98.219L316.501,301.565z"/>
<rect x="188.853" y="248.698" transform="matrix(0.7071 0.7071 -0.7071 0.7071 305.7923 -60.8534)" style="fill:#FCBF29;" width="74.999" height="179.998"/>
<g>
</g>
<g>
</g>
<g>
</g>
<g>
</g>
<g>
</g>
<g>
</g>
<g>
</g>
<g>
</g>
<g>
</g>
<g>
</g>
<g>
</g>
<g>
</g>
<g>
</g>
<g>
</g>
<g>
</g>
</svg>
