<?xml version="1.0" encoding="iso-8859-1"?>
<!-- Generator: Adobe Illustrator 19.0.0, SVG Export Plug-In . SVG Version: 6.00 Build 0)  -->
<svg version="1.1" id="Capa_1" xmlns="http://www.w3.org/2000/svg" xmlns:xlink="http://www.w3.org/1999/xlink" x="0px" y="0px"
	 viewBox="0 0 512 512" style="enable-background:new 0 0 512 512;" xml:space="preserve">
<g>
	<rect y="105.5" style="fill:#57555C;" width="92" height="30"/>
	<path style="fill:#57555C;" d="M437,391.5c0,8.401-6.599,15-15,15H162.8c-8.399,0-15-6.599-15-15s6.601-15,15-15H422
		C430.401,376.5,437,383.099,437,391.5z"/>
</g>
<path style="fill:#3C3A41;" d="M437,391.5c0,8.401-6.599,15-15,15H287v-30h135C430.401,376.5,437,383.099,437,391.5z"/>
<path style="fill:#57555C;" d="M151.429,485.616l50.068-176.254c2.271-7.954-2.344-16.26-10.313-18.545
	c-7.866-2.227-16.26,2.329-18.545,10.313l-50.068,176.254L151.429,485.616z"/>
<path style="fill:#3C3A41;" d="M411.614,407.701c-6.519,0-12.524-4.292-14.414-10.884l-24.697-87.455
	c-2.271-7.969,2.344-16.26,10.313-18.545c7.91-2.197,16.26,2.329,18.545,10.313l24.697,87.455
	c2.271,7.969-2.344,16.26-10.313,18.545C414.368,407.511,412.991,407.701,411.614,407.701z"/>
<path style="fill:#57555C;" d="M422,376.5c-32.999,0-60,27.001-60,60s27.001,60,60,60s60-27.001,60-60S454.999,376.5,422,376.5z"/>
<path style="fill:#3C3A41;" d="M482,436.5c0,32.999-27.001,60-60,60v-120C454.999,376.5,482,403.501,482,436.5z"/>
<path style="fill:#EFE6DE;" d="M422,406.5c-16.5,0-30,13.5-30,30s13.5,30,30,30s30-13.5,30-30S438.5,406.5,422,406.5z"/>
<path style="fill:#DFCCBF;" d="M452,436.5c0,16.5-13.5,30-30,30v-60C438.5,406.5,452,420,452,436.5z"/>
<path style="fill:#17ACE8;" d="M512,120.5c0,62.1-25.201,118.2-66,159s-96.899,66-159,66c-124.2,0-225-100.8-225-225H512z"/>
<path style="fill:#1689FC;" d="M512,120.5c0,62.1-25.201,118.2-66,159s-96.899,66-159,66v-225H512z"/>
<path style="fill:#EFE6DE;" d="M512,120.5c0,20.4-11.4,39-31.199,54.6H93.199C73.4,159.5,62,140.9,62,120.5c0-60,96.599-105,225-105
	S512,60.5,512,120.5z"/>
<path style="fill:#DFCCBF;" d="M512,120.5c0,20.4-11.4,39-31.199,54.6H287V15.5C415.401,15.5,512,60.5,512,120.5z"/>
<path style="fill:#3C3A41;" d="M482,165.5c0,3.3-0.3,6.599-1.199,9.6c-9.001,7.2-19.501,13.5-31.8,19.499
	c-16.501,7.8-35.7,14.101-57.001,19.2c-6.599,1.5-13.2-26.999-20.099-25.8c-3.301,0.601-6.601,31.199-9.901,31.8
	c-18.9,2.701-39,4.799-60,5.4c-5.099,0-9.901-29.7-15-29.7s-9.901,29.7-15,29.7c-21-0.601-41.1-2.699-60-5.4
	c-6-0.899-11.7-32.1-17.1-32.999c-4.499-0.901-8.699,28.2-12.9,26.999c-21.301-5.099-40.499-11.4-57.001-19.2
	C112.7,188.6,102.201,182.3,93.199,175.1C92.3,172.099,92,168.8,92,165.5c0-31.8,36-59.7,90-75.901
	c6.599-1.8,13.2,26.4,20.099,24.901C205.4,113.901,208.7,83,212,82.4c18.6-3.6,39-5.7,60-6.599c5.099,0,9.901,29.7,15,29.7
	s9.901-29.7,15-29.7c21,0.899,41.4,2.999,60,6.599c3.3,0.601,6.599,31.501,9.901,32.1c6.899,1.5,13.5-26.7,20.099-24.901
	C446,105.8,482,133.7,482,165.5z"/>
<path style="fill:#2B292C;" d="M482,165.5c0,3.3-0.3,6.599-1.199,9.6c-21,16.8-51.601,30-88.801,38.699
	c-6.599,1.5-13.2-26.999-20.099-25.8c-3.301,0.601-6.601,31.199-9.901,31.8c-18.9,2.701-39,4.799-60,5.4
	c-5.099,0-9.901-29.7-15-29.7v-90c5.099,0,9.901-29.7,15-29.7c21,0.899,41.4,2.999,60,6.599c3.3,0.601,6.599,31.501,9.901,32.1
	c6.899,1.5,13.5-26.7,20.099-24.901C446,105.8,482,133.7,482,165.5z"/>
<path style="fill:#FC4629;" d="M452,180.5c0,4.799-0.901,9.6-2.999,14.099c-16.501,7.8-35.7,14.101-57.001,19.2
	c-6.599,1.5-13.2-26.999-20.099-25.8c-3.301,0.601-6.601,31.199-9.901,31.8c-18.9,2.701-39,4.799-60,5.4
	c-5.099,0-9.901-29.7-15-29.7s-9.901,29.7-15,29.7c-21-0.601-41.1-2.699-60-5.4c-6-0.899-11.7-32.1-17.1-32.999
	c-4.499-0.901-8.699,28.2-12.9,26.999c-21.301-5.099-40.499-11.4-57.001-19.2c-2.098-4.499-2.999-9.3-2.999-14.099
	c0-41.4,73.801-75,165-75S452,139.1,452,180.5z"/>
<path style="fill:#FF2615;" d="M452,180.5c0,4.799-0.901,9.6-2.999,14.099c-16.501,7.8-35.7,14.101-57.001,19.2
	c-6.599,1.5-13.2-26.999-20.099-25.8c-3.301,0.601-6.601,31.199-9.901,31.8c-18.9,2.701-39,4.799-60,5.4
	c-5.099,0-9.901-29.7-15-29.7v-90C378.199,105.5,452,139.1,452,180.5z"/>
<path style="fill:#3C3A41;" d="M302,75.8v149.4c-5.099,0-9.901,0.3-15,0.3s-9.901-0.3-15-0.3V75.8c5.099,0,9.901-0.3,15-0.3
	S296.901,75.8,302,75.8z"/>
<g>
	<path style="fill:#2B292C;" d="M302,75.8v149.4c-5.099,0-9.901,0.3-15,0.3v-150C292.099,75.5,296.901,75.8,302,75.8z"/>
	<path style="fill:#2B292C;" d="M362,82.421V219.71c10.41-1.622,20.42-3.552,30-5.819V89.74
		C382.504,86.931,372.523,84.448,362,82.421z"/>
</g>
<path style="fill:#3C3A41;" d="M182,89.74v124.151c9.58,2.267,19.59,4.197,30,5.819V82.421C201.477,84.448,191.496,86.931,182,89.74
	z"/>
<g>
</g>
<g>
</g>
<g>
</g>
<g>
</g>
<g>
</g>
<g>
</g>
<g>
</g>
<g>
</g>
<g>
</g>
<g>
</g>
<g>
</g>
<g>
</g>
<g>
</g>
<g>
</g>
<g>
</g>
</svg>
