<?xml version="1.0" encoding="iso-8859-1"?>
<!-- Generator: Adobe Illustrator 19.0.0, SVG Export Plug-In . SVG Version: 6.00 Build 0)  -->
<svg version="1.1" id="Capa_1" xmlns="http://www.w3.org/2000/svg" xmlns:xlink="http://www.w3.org/1999/xlink" x="0px" y="0px"
	 viewBox="0 0 512 512" style="enable-background:new 0 0 512 512;" xml:space="preserve">
<path style="fill:#6ECD24;" d="M481,196c0,5.7-0.3,11.4-1.199,17.1c-1.201,7.5-7.5,12.9-15,12.9H167.199c-7.5,0-13.799-5.4-15-12.9
	C151.3,207.4,151,201.7,151,196c0-45,25.201-86.1,65.099-106.5c7.2-22.8,21.301-41.7,39.901-54.6C273.1,22.899,293.8,16,316,16
	c46.199,0,86.1,29.7,99.901,73.5C455.799,109.9,481,151,481,196z"/>
<g>
	<path style="fill:#66BD21;" d="M256,226V34.9C273.1,22.899,293.8,16,316,16c46.199,0,86.1,29.7,99.901,73.5
		C455.799,109.9,481,151,481,196c0,5.7-0.3,11.4-1.199,17.1c-1.201,7.5-7.5,12.9-15,12.9H256z"/>
	<polygon style="fill:#66BD21;" points="386.499,161.499 326.499,221.499 305.501,221.499 256,172 245.501,161.499 266.499,140.501 
		301,174.699 301,106 331,106 331,174.699 365.501,140.501 	"/>
</g>
<polygon style="fill:#5DAD1D;" points="386.499,161.499 326.499,221.499 305.501,221.499 256,172 256,151 266.499,140.501 
	301,174.699 301,106 331,106 331,174.699 365.501,140.501 "/>
<path style="fill:#FEDB41;" d="M196,76c-46.597,0-86.997,29.941-100.503,74.502L121,227.479L211,211V76H196z"/>
<path style="fill:#FCBF29;" d="M72.367,96.156l-10.605,10.605c-28.433,28.418-38.159,71.294-24.785,109.233l139.629-15.601
	L72.367,96.156z"/>
<polygon style="fill:#DFCCBF;" points="512,196 512,256 456.099,286 42.1,286 0,256 0,196 "/>
<polygon style="fill:#C8AD92;" points="512,196 512,256 456.099,286 256,286 256,196 "/>
<path style="fill:#EFE6DE;" d="M512,256v15c0,74.399-46,148.5-121,179.7V496H121v-45.3C46,419.5,0,345.399,0,271v-15H512z"/>
<path style="fill:#DFCCBF;" d="M512,256v15c0,74.399-46,148.5-121,179.7V496H256V256H512z"/>
<g>
</g>
<g>
</g>
<g>
</g>
<g>
</g>
<g>
</g>
<g>
</g>
<g>
</g>
<g>
</g>
<g>
</g>
<g>
</g>
<g>
</g>
<g>
</g>
<g>
</g>
<g>
</g>
<g>
</g>
</svg>
